<svg width="39" height="24" viewBox="0 0 39 24" fill="none" xmlns="http://www.w3.org/2000/svg">
<g filter="url(#filter0_d_65_644)">
<path d="M34.7926 11.1697L34.8361 9.28371L34.8402 9.11944C34.7994 7.8736 34.6483 6.63382 34.3887 5.41464C34.0026 4.35526 32.6712 3.84671 31.57 3.6055C31.4202 3.43355 31.2355 3.29558 31.0281 3.20082C30.8207 3.10606 30.5954 3.0567 30.3674 3.05605L27.4025 2.98185C27.0317 2.96812 26.6669 3.07953 26.3671 3.29817L25.9334 3.28716L24.6152 3.25364L24.1425 2.01169L23.6938 2.00013L23.8449 3.23571L15.9669 3.03866C15.6779 2.80476 15.3187 2.67456 14.9469 2.6689L7.70203 2.48889C7.29131 2.4723 6.88945 2.61124 6.57668 2.87797C5.69614 2.98646 4.35118 3.29505 4.23776 4.18525L4.11886 9.56365L4.00002 14.9441C4.06984 15.8368 5.40432 16.2131 6.27766 16.3651C6.57765 16.6476 6.97297 16.8069 7.38503 16.8113L14.63 16.9943C15.0009 17.0082 15.3657 16.8967 15.6655 16.678L23.5946 16.8765L23.409 17.9981L23.8578 18.0096L24.3368 16.8943L25.6299 16.9265L26.0708 16.9453C26.359 17.1739 26.7148 17.3009 27.0826 17.3063L30.0475 17.3805C30.4211 17.3923 30.7877 17.2772 31.0876 17.0541C32.2266 16.8848 33.703 16.4551 34.1576 15.3605C34.4708 14.1552 34.6763 12.9245 34.7719 11.6828L34.7836 11.17L34.7926 11.1697Z" fill="white"/>
</g>
<path d="M6.89978 8.06201C6.89978 7.50973 6.45206 7.06201 5.89978 7.06201C5.3475 7.06201 4.89978 7.50973 4.89978 8.06201V11.062C4.89978 11.6143 5.3475 12.062 5.89978 12.062C6.45206 12.062 6.89978 11.6143 6.89978 11.062V8.06201Z" fill="#242E42"/>
<path d="M6.89978 5.06201C6.89978 4.50973 6.45206 4.06201 5.89978 4.06201C5.3475 4.06201 4.89978 4.50973 4.89978 5.06201V7.06201C4.89978 7.6143 5.3475 8.06201 5.89978 8.06201C6.45206 8.06201 6.89978 7.6143 6.89978 7.06201V5.06201Z" fill="#F52D56"/>
<path d="M34.8998 8.56201C34.8998 8.28587 34.6759 8.06201 34.3998 8.06201C34.1236 8.06201 33.8998 8.28587 33.8998 8.56201V12.562C33.8998 12.8382 34.1236 13.062 34.3998 13.062C34.6759 13.062 34.8998 12.8382 34.8998 12.562V8.56201Z" fill="#242E42"/>
<path d="M6.89978 12.062C6.89978 11.5097 6.45206 11.062 5.89978 11.062C5.3475 11.062 4.89978 11.5097 4.89978 12.062V14.062C4.89978 14.6143 5.3475 15.062 5.89978 15.062C6.45206 15.062 6.89978 14.6143 6.89978 14.062V12.062Z" fill="#F52D56"/>
<path d="M27.2128 10.6179H27.2048C27.1552 12.0126 26.8589 13.3875 26.3298 14.6789C26.2209 14.9846 26.0489 15.264 25.8249 15.4988C25.6009 15.7336 25.33 15.9187 25.0298 16.0419H25.0138C24.9468 16.0622 24.8782 16.0766 24.8088 16.0849C24.6612 16.107 24.5105 16.0957 24.3678 16.0519L19.8998 14.1679C20.5408 13.7619 20.8828 10.9329 20.9918 9.86192C20.9918 8.78692 20.9488 5.93892 20.3538 5.46192L24.9898 4.07892C25.1365 4.0512 25.2875 4.05666 25.4318 4.09492C25.5001 4.11062 25.567 4.13203 25.6318 4.15892L25.6478 4.16192C25.9336 4.31797 26.1838 4.53199 26.3822 4.79029C26.5805 5.04859 26.7228 5.34547 26.7998 5.66192C27.1903 7.00264 27.3413 8.40175 27.2458 9.79492H27.2538C27.2468 9.93392 27.2398 10.0699 27.2318 10.2039C27.2238 10.3379 27.2188 10.4739 27.2108 10.6129L27.2128 10.6179Z" fill="#242E42"/>
<path d="M13.5958 5.41315L13.3028 11.0281L13.1298 14.4231L13.1188 14.6361C12.1958 15.7361 10.1098 15.6791 8.73376 15.4961L9.32976 3.99815C10.7168 3.97115 12.7968 4.14215 13.5998 5.33815L13.5958 5.41315Z" fill="#242E42"/>
<path d="M13.0897 3.06201H22.8997C22.8997 3.06201 18.6687 5.06201 17.5207 5.06201C16.3727 5.06201 11.9367 3.06201 13.0897 3.06201Z" fill="#242E42"/>
<path d="M13.0948 17.062H22.9048C22.9048 17.062 18.5298 15.062 17.3818 15.062C16.2338 15.062 11.9418 17.062 13.0948 17.062Z" fill="#242E42"/>
<defs>
<filter id="filter0_d_65_644" x="0" y="0" width="38.8402" height="24.0098" filterUnits="userSpaceOnUse" color-interpolation-filters="sRGB">
<feFlood flood-opacity="0" result="BackgroundImageFix"/>
<feColorMatrix in="SourceAlpha" type="matrix" values="0 0 0 0 0 0 0 0 0 0 0 0 0 0 0 0 0 0 127 0" result="hardAlpha"/>
<feOffset dy="2"/>
<feGaussianBlur stdDeviation="2"/>
<feColorMatrix type="matrix" values="0 0 0 0 0 0 0 0 0 0 0 0 0 0 0 0 0 0 0.2 0"/>
<feBlend mode="normal" in2="BackgroundImageFix" result="effect1_dropShadow_65_644"/>
<feBlend mode="normal" in="SourceGraphic" in2="effect1_dropShadow_65_644" result="shape"/>
</filter>
</defs>
</svg>
