<svg preserveAspectRatio="none" width="100%" height="100%" overflow="visible" style="display: block;" viewBox="0 0 217.003 251.003" fill="none" xmlns="http://www.w3.org/2000/svg">
<g id="Group">
<path id="Vector" d="M190.149 166.754C188.321 167.663 185.976 167.035 184.633 166.028L174.001 158.094C172.442 156.929 170.018 156.138 167.928 156.589L117.432 167.559C116.311 167.801 113.671 167.748 112.833 166.95L66.9158 123.419C65.4811 122.059 65.0552 120.26 65.3107 118.357L73.421 57.8453C73.5979 56.511 74.5675 54.6075 75.6288 53.9403L117.844 27.3379C121.447 26.9781 124.9 27.3379 128.582 27.449L166.336 28.5545C167.443 28.5872 170.194 29.1301 170.869 30.0262L204.522 74.7344C205.564 76.1211 205.734 77.9787 205.328 79.529L193.982 123.145C193.281 125.84 194.218 127.998 196.085 129.705L215.633 147.549C216.334 148.19 217.015 150.074 217.002 150.951C216.989 151.952 215.869 153.979 214.893 154.463L190.143 166.754H190.149ZM134.995 126.167L127.815 118.278C133.403 106.053 142.477 96.8235 154.727 91.5972L162.222 98.7008C165.085 101.415 169.186 100.127 171.079 97.1898C173.3 93.7427 172.861 90.76 170.666 87.666L156.306 67.3953C155.042 65.6161 152.513 64.5826 150.312 65.0732L112.276 73.5962C110.278 74.041 109.511 77.0041 109.118 78.7571L101.185 114.118C100.707 116.257 101.696 118.906 103.484 120.155L125.837 135.736C128.752 137.771 135.572 134.964 136.26 131.223C136.574 129.509 136.03 127.285 135.002 126.16L134.995 126.167Z" fill="#FEB800"/>
<path id="Vector_2" d="M10.4449 165.472C7.06453 165.845 4.8961 163.987 4.6013 161.089L2.49838 88.5752L1.20126 42.7093C1.1423 40.7339 3.50726 38.8109 5.43985 38.6539L38.1759 36.044C41.3401 35.7889 43.0696 37.6662 43.633 40.8059L63.9677 154.437C64.577 157.825 62.2775 159.781 59.2902 160.115L10.4384 165.478L10.4449 165.472Z" fill="#FEB800"/>
<path id="Vector_3" d="M102.24 235.939L81.5182 235.337L76.8211 250.918L53.5907 246.745L86.3857 191.643L102.515 190.164L128.438 246.47L104.205 250.309L102.24 235.932V235.939ZM99.9597 220.397L97.2934 211.881C95.2822 211.168 92.0066 210.671 90.0085 211.384L86.6478 220.018C91.5415 220.489 95.2298 220.626 99.9597 220.391V220.397Z" fill="#FEB800"/>
<path id="Vector_4" d="M39.9906 211.966L45.5525 251.003L16.7668 250.937L21.1298 211.894L0.0810113 210.736L0.0548068 190.079L43.5282 190.845L60.6267 191.211L60.5153 215.105L39.9906 211.966Z" fill="#FEB800"/>
<path id="Vector_5" d="M141.225 249.655L125.824 234.663L144.029 218.023L130.226 202.514L141.736 190.55L154.937 203.632L164.692 189.602L179.74 204.09L168.458 217.676L187.26 232.518L172.16 250.002L158.402 232.511L141.225 249.655Z" fill="#FEB800"/>
<path id="Vector_6" d="M216.996 247L191.525 250.192L189.219 190.341L204.771 189.314L216.996 247Z" fill="#FEB800"/>
<path id="Vector_7" d="M36.1385 29.4113L5.45293 31.9297C2.76041 32.152 0.729552 30.3729 0.650939 27.7303L0.00237573 6.71387C-0.0631357 4.54878 1.22744 1.95198 3.72342 1.795L31.6116 0.0158314C34.5465 -0.173859 36.5971 1.35021 37.0294 4.09745L40.2133 24.4794C40.5605 26.7033 38.7524 29.1955 36.145 29.4048L36.1385 29.4113Z" fill="#FEB800"/>
</g>
</svg>
