<svg width="265" height="263" viewBox="0 0 265 263" fill="none" xmlns="http://www.w3.org/2000/svg">
<g clip-path="url(#clip0_7_1504)">
<path fill-rule="evenodd" clip-rule="evenodd" d="M8.59497 129.833C-8.81318 86.6284 -3.6092 29.819 60.2151 19.8344C124.039 9.84986 152.325 81.6276 185.597 43.2047C218.869 4.79864 303.627 81.3919 244.705 163.441C185.782 245.489 157.865 86.0054 125.282 168.02C92.698 250.035 26.0031 173.038 8.59497 129.833Z" fill="#E6EDF2"/>
<path d="M9.71973 197.772L111.332 257.511L251.302 174.52L149.69 114.764L9.71973 197.772Z" fill="#F4F4F4"/>
<path d="M29.9817 196.577L112.003 244.799L232.047 174.671L148.985 125.826L29.9817 196.577Z" fill="#B2D07C"/>
<path d="M9.71973 197.772L111.332 257.511V263L9.71973 203.244V197.772Z" fill="#EBEBEB"/>
<path d="M251.302 174.52L111.332 257.511V263L251.302 179.992V174.52Z" fill="#D2D2D2"/>
<path d="M142.723 124.024L69.4312 225.453" stroke="#F4F4F4" stroke-width="5.96" stroke-miterlimit="10"/>
<path d="M209.603 193.546L109.905 170.462" stroke="#F4F4F4" stroke-width="5.96" stroke-miterlimit="10"/>
<path d="M142.723 231.969L150.462 179.857" stroke="#F4F4F4" stroke-width="5.96" stroke-miterlimit="10"/>
<path d="M61.8602 187.602C68.34 187.602 73.5776 191.61 73.5776 196.56C73.5776 201.51 68.34 205.517 61.8602 205.517C55.3804 205.517 50.1597 201.51 50.1597 196.56C50.1597 191.61 55.3972 187.602 61.8602 187.602Z" fill="#8AB839"/>
<path d="M150.462 145.559C156.942 145.559 162.18 149.567 162.18 154.517C162.18 159.467 156.942 163.474 150.462 163.474C143.982 163.474 138.762 159.467 138.762 154.517C138.762 149.567 143.999 145.559 150.462 145.559Z" fill="#8AB839"/>
<path d="M181.317 154.517C184.473 154.517 187.024 156.47 187.024 158.878C187.024 161.285 184.473 163.255 181.317 163.255C178.161 163.255 175.609 161.302 175.609 158.878C175.609 156.453 178.161 154.517 181.317 154.517Z" fill="#8AB839"/>
<path d="M200.857 170.462C204.013 170.462 206.564 172.415 206.564 174.823C206.564 177.23 204.013 179.2 200.857 179.2C197.701 179.2 195.149 177.247 195.149 174.823C195.149 172.398 197.701 170.462 200.857 170.462Z" fill="#8AB839"/>
<path d="M84.1871 170.462C87.343 170.462 89.8947 172.415 89.8947 174.823C89.8947 177.23 87.343 179.2 84.1871 179.2C81.0311 179.2 78.4795 177.247 78.4795 174.823C78.4795 172.398 81.0311 170.462 84.1871 170.462Z" fill="#8AB839"/>
<path d="M112.087 221.075C115.243 221.075 117.795 223.028 117.795 225.436C117.795 227.844 115.243 229.797 112.087 229.797C108.931 229.797 106.379 227.844 106.379 225.436C106.379 223.028 108.931 221.075 112.087 221.075Z" fill="#8AB839"/>
<path d="M165.453 196.56C168.609 196.56 171.161 198.513 171.161 200.921C171.161 203.328 168.609 205.298 165.453 205.298C162.297 205.298 159.745 203.345 159.745 200.921C159.745 198.496 162.297 196.56 165.453 196.56Z" fill="#8AB839"/>
<path d="M117.778 188.798C124.258 188.798 129.495 192.805 129.495 197.755C129.495 202.705 124.258 206.713 117.778 206.713C111.298 206.713 106.077 202.705 106.077 197.755C106.077 192.805 111.315 188.798 117.778 188.798Z" fill="#8AB839"/>
<path d="M65.0161 187.097L120.934 220.89L176.851 187.754L120.934 156.874L65.0161 187.097Z" fill="#B8B9BE"/>
<path d="M221.773 140.542C221.773 130.321 215.461 122.037 207.689 122.037C199.917 122.037 193.605 130.321 193.605 140.542C193.605 140.542 192.648 156.823 207.689 168.206C222.73 156.823 221.773 140.542 221.773 140.542Z" fill="#EABB00"/>
<path d="M201.444 123.115L206.749 122.037L207.689 168.206L203.593 169.081L201.444 123.115Z" fill="#CFA600"/>
<path d="M217.677 141.417C217.677 131.197 211.365 122.896 203.593 122.896C195.821 122.896 189.509 131.197 189.509 141.417C189.509 141.417 188.552 157.682 203.593 169.081C218.634 157.682 217.677 141.417 217.677 141.417Z" fill="#FFD940"/>
<path d="M210.409 141.417C210.409 147.226 206.833 151.924 202.418 151.924C198.003 151.924 194.427 147.226 194.427 141.417C194.427 135.608 198.003 130.928 202.418 130.928C206.833 130.928 210.409 135.625 210.409 141.417Z" fill="white"/>
<path d="M203.593 149.785C199.178 149.785 195.603 145.088 195.603 139.279C195.603 137.494 195.938 135.81 196.543 134.346C195.233 136.214 194.444 138.69 194.444 141.417C194.444 147.226 198.02 151.924 202.435 151.924C205.49 151.924 208.143 149.668 209.486 146.367C208.025 148.472 205.927 149.785 203.593 149.785Z" fill="#FFCC00"/>
<path d="M176.851 94.8955L120.934 128.048V188.814L176.851 156.924V94.8955Z" fill="#E9B044"/>
<path d="M65.0161 94.2389L120.934 128.048V188.814L65.0161 156.924V94.2389Z" fill="#EDBD64"/>
<path d="M70.9587 104.291L114.991 130.911V178.763L70.9587 153.658V104.291Z" fill="#EFC577"/>
<path d="M75.2058 111.48L110.744 132.948V171.573L75.2058 151.318V111.48Z" fill="#F3D49B"/>
<path d="M65.0161 94.2389L120.934 128.048L176.851 94.8955L120.934 64.0326L65.0161 94.2389Z" fill="#F1CB85"/>
<path d="M145.006 151.149L128.555 160.898V178.763L145.006 169.384V151.149Z" fill="#A4A4A4"/>
<path d="M153.769 146.25L147.524 150.055V167.919L153.769 164.484V146.25Z" fill="#A4A4A4"/>
<path d="M84.8081 106.16L98.7246 114.578V134.649L84.8081 126.718V106.16Z" fill="#EBEBEB"/>
<path d="M84.8081 106.193L98.7246 114.612L153.618 82.0149L140.054 74.5223L84.8081 106.193Z" fill="#F4F4F4"/>
<path d="M153.366 37.2106C153.366 16.669 140.692 0 125.064 0C109.435 0 96.7606 16.669 96.7606 37.2106C96.7606 37.2106 94.8301 69.9257 125.064 92.8077C155.314 69.9088 153.366 37.2106 153.366 37.2106Z" fill="#EABB00"/>
<path d="M112.507 2.18886L123.167 0L125.047 92.8077L116.821 94.5588L112.507 2.18886Z" fill="#CFA600"/>
<path d="M145.124 38.9617C145.124 18.4201 132.45 1.7511 116.821 1.7511C101.192 1.7511 88.5013 18.4201 88.5013 38.9617C88.5013 38.9617 86.5708 71.6768 116.821 94.5588C147.071 71.6599 145.124 38.9617 145.124 38.9617Z" fill="#FFD940"/>
<path d="M130.553 38.9617C130.553 50.63 123.351 60.0758 114.488 60.0758C105.624 60.0758 98.4224 50.6132 98.4224 38.9617C98.4224 27.3102 105.607 17.8645 114.488 17.8645C123.368 17.8645 130.553 27.3102 130.553 38.9617Z" fill="white"/>
<path d="M116.821 55.7823C107.941 55.7823 100.756 46.3197 100.756 34.6514C100.756 31.065 101.444 27.6807 102.653 24.7341C100.034 28.4889 98.4224 33.4727 98.4224 38.9617C98.4224 50.63 105.607 60.0758 114.488 60.0758C120.632 60.0758 125.953 55.5466 128.656 48.8958C125.718 53.1051 121.505 55.7654 116.821 55.7654V55.7823Z" fill="#FFCC00"/>
</g>
<defs>
<clipPath id="clip0_7_1504">
<rect width="265" height="263" fill="white"/>
</clipPath>
</defs>
</svg>
