<svg width="200" height="200" viewBox="0 0 200 200" fill="none" xmlns="http://www.w3.org/2000/svg">
<path d="M100 0C155.229 2.06164e-06 200 44.7714 200 100C200 155.229 155.229 200 100 200C44.7714 200 2.06189e-06 155.229 0 100C0 44.7714 44.7714 0 100 0ZM153.559 60.2158C151.037 57.7062 146.947 57.7062 144.425 60.2158L83.8545 120.479L55.5752 92.3438C53.0532 89.8345 48.9638 89.8345 46.4414 92.3438L37.3086 101.431C34.7866 103.94 34.7866 108.008 37.3086 110.518L79.2871 152.284C81.8094 154.794 85.8985 154.794 88.4209 152.285L162.691 78.3896C165.213 75.8804 165.213 71.812 162.691 69.3027L153.559 60.2158Z" fill="#4CE5B1"/>
</svg>
