<svg width="202" height="200" viewBox="0 0 202 200" fill="none" xmlns="http://www.w3.org/2000/svg">
<g clip-path="url(#clip0_7_6315)">
<mask id="mask0_7_6315" style="mask-type:luminance" maskUnits="userSpaceOnUse" x="12" y="0" width="121" height="95">
<path d="M31.2159 45.8563C37.4734 33.5921 46.7666 19.0223 54.9979 33.6707C63.2291 48.3199 85.955 34.3827 93.213 13.1157C100.316 -7.69501 141.316 -7.04697 130.068 39.4112C123.351 67.1556 95.6279 68.3959 81.7753 72.3591C67.9234 76.3222 70.8147 97.5554 52.215 93.7069C36.3272 90.4196 23.3533 80.8321 14.9659 91.6988C6.5786 102.566 27.0669 53.9892 31.2159 45.8571V45.8563Z" fill="white"/>
</mask>
<g mask="url(#mask0_7_6315)">
<path d="M93.2131 13.1157C85.9551 34.3827 65.6815 48.4294 54.998 35.4686C45.556 24.0133 37.4735 33.5921 31.216 45.8563C27.509 53.1229 21.6391 70.2151 4.36899 66.8941C4.38585 67.1755 4.35653 67.4687 4.27225 67.7758C3.80612 78.8387 2.93983 89.8804 2.3667 100.937C7.21339 99.6318 11.3477 96.3872 14.9668 91.6988C23.3541 80.8321 36.328 90.4196 52.2159 93.7069C70.8155 97.5554 67.9242 76.3222 81.7761 72.3591C95.628 68.3959 123.352 67.1564 130.069 39.4112C141.316 -7.04697 100.316 -7.69501 93.2138 13.1157H93.2131Z" fill="url(#paint0_linear_7_6315)"/>
<g style="mix-blend-mode:soft-light" opacity="0.5">
<path d="M117.762 -6.35986C117.704 39.055 78.7279 60.9465 46.0411 71.3137C31.0701 76.0623 16.0177 78.8939 3.59133 80.5816C3.57961 80.7785 3.56788 80.9755 3.55615 81.1724C16.0302 79.4832 31.1573 76.6434 46.2053 71.8713C67.1084 65.2425 83.7732 56.2376 95.7349 45.1063C110.71 31.1727 118.316 13.8564 118.341 -6.35986H117.762Z" fill="#BEB8F2"/>
<path d="M89.2263 50.6588L89.1875 50.0791C108.434 48.7771 133.744 36.4174 133.997 36.2925L134.252 36.8141C133.998 36.939 108.585 49.3488 89.2263 50.6588Z" fill="#BEB8F2"/>
<path d="M98.9504 41.1003C107.176 19.5813 97.9844 2.75216 97.8906 2.58464L98.3956 2.30029C98.4909 2.47002 107.818 19.5255 99.4913 41.3083L98.9497 41.1003H98.9504Z" fill="#BEB8F2"/>
<path d="M22.4463 77.4046C48.0415 65.8193 47.5563 27.9641 47.5211 27.5953L48.0928 27.502C48.1617 27.8605 48.5076 66.2461 22.6852 77.9336L22.447 77.4039L22.4463 77.4046Z" fill="#BEB8F2"/>
<path d="M33.8477 75.3746L33.8557 74.7935C51.7745 75.0418 67.2439 91.472 67.3985 91.638L66.9742 92.0341C66.8217 91.8695 51.5158 75.6186 33.8477 75.3746Z" fill="#BEB8F2"/>
<path d="M12.1078 96.1796C10.3774 94.5815 7.02581 91.4868 3.09158 88.6221C3.07692 88.8506 3.063 89.0783 3.04834 89.3068C6.82426 92.0908 10.0388 95.0591 11.7149 96.6072C12.4574 97.2927 12.7644 97.5748 12.9022 97.6564L13.1983 97.1568C13.1016 97.0973 12.6413 96.6719 12.1078 96.1796Z" fill="#BEB8F2"/>
</g>
</g>
<path d="M87.4375 64.6809C83.2592 60.0733 77.2509 60.4988 72.951 61.4899C72.7435 62.0513 72.4812 62.3209 72.1484 62.8382C69.1391 67.5104 68.8489 70.1466 66.6084 75.2214C66.1262 76.314 65.6835 79.9517 65.5977 81.4498L65.4819 84.2455C65.4819 84.2455 76.3216 93.5899 82.2735 88.0294C88.2254 82.4689 99.6433 90.0345 106.185 93.2952C110.202 95.2974 112.679 94.9234 114.273 95.4216C131.144 100.696 134.154 107.534 140.691 105.87C147.907 104.033 146.305 95.174 154.05 92.7603C162.796 90.0345 170.712 99.5023 178.413 95.0689C179.734 94.3092 181.069 93.4921 182.292 91.8662C185.31 87.8538 184.069 83.1955 188.984 81.3771C198.862 77.7232 205.447 68.0438 200.083 58.5877C194.788 49.2543 176.888 50.9361 157.806 65.207C143.082 73.8048 139.975 72.7975 132.944 68.8704C128.02 66.1195 116.487 55.3916 108.322 60.9021C100.158 66.4127 92.2146 69.9489 87.4383 64.6809H87.4375Z" fill="url(#paint1_linear_7_6315)"/>
<mask id="mask1_7_6315" style="mask-type:luminance" maskUnits="userSpaceOnUse" x="65" y="52" width="138" height="45">
<path d="M67.5548 63.1563L65.1816 83.6481C65.1816 83.6481 76.321 93.5899 82.2737 88.0301C88.2256 82.4696 99.6435 90.0352 106.185 93.296C123.934 102.143 130.099 79.9333 153.799 89.313C160.103 91.8074 171.293 98.8594 178.413 95.0689C186.525 90.7508 182.663 83.715 188.984 81.3771C198.863 77.7232 205.447 68.0438 200.083 58.5877C194.788 49.2543 176.888 50.9361 157.806 65.207C143.082 73.8048 139.975 72.7975 132.944 68.8704C128.02 66.1195 116.486 55.3916 108.323 60.9021C100.158 66.4127 92.2148 69.9489 87.4385 64.6809C80.171 56.6656 67.5555 63.1556 67.5555 63.1556L67.5548 63.1563Z" fill="white"/>
</mask>
<g mask="url(#mask1_7_6315)">
<g style="mix-blend-mode:soft-light" opacity="0.5">
<path d="M67.4017 72.4314L67.3071 72.8289C69.4934 73.3733 71.7046 73.8928 73.8798 74.3733C89.9883 77.9302 105.863 79.7281 121.063 79.7185C133.942 79.7097 146.518 78.4063 158.441 75.8428C168.029 73.7818 177.25 70.8987 185.846 67.2735C191.889 64.7247 197.564 61.8394 202.712 58.6962C203.609 58.1488 204.499 57.5353 205.361 56.9424C206.508 56.1518 207.694 55.3348 208.906 54.6669L208.741 54.3047C207.512 54.9814 206.318 55.8043 205.163 56.6C204.306 57.19 203.42 57.8006 202.532 58.3428C197.4 61.4765 191.742 64.3537 185.716 66.8944C177.141 70.5108 167.942 73.3866 158.376 75.4431C146.477 78.0007 133.926 79.3019 121.072 79.3107C105.898 79.321 90.0491 77.5253 73.9656 73.9736C71.7932 73.4938 69.5843 72.9751 67.4017 72.4314Z" fill="#FCFDFE"/>
<path d="M143.769 77.9176L143.792 78.3239C160.024 76.7663 183.087 92.9459 183.318 93.1091L183.532 92.7659C183.3 92.6014 160.13 76.3468 143.769 77.9169V77.9176Z" fill="#FCFDFE"/>
<path d="M98.1157 77.995L98.0952 78.4028C109.206 78.732 124.05 61.7397 124.198 61.5685L123.924 61.2944C123.777 61.4649 109.054 78.3198 98.1157 77.995Z" fill="#FCFDFE"/>
<path d="M91.8411 77.22L91.7539 77.6197C98.8228 79.2148 107.57 85.4828 116.384 95.2703C116.679 95.5985 116.85 95.7682 116.897 95.7794L116.989 95.3805L116.942 95.5796L117.053 95.4121C117.02 95.3834 116.853 95.1975 116.659 94.9815C107.794 85.1382 98.9811 78.8305 91.8404 77.2192L91.8411 77.22Z" fill="#FCFDFE"/>
<path d="M71.4058 73.3634L71.4277 73.7697C79.4149 73.0379 86.313 62.44 86.3819 62.3327L86.0726 62.1064C86.0052 62.2115 79.2105 72.6477 71.4065 73.3626L71.4058 73.3634Z" fill="#FCFDFE"/>
<path d="M67.1636 73.0001C72.4889 76.7678 76.9434 82.3349 80.7802 90.021L81.1151 89.8204C77.2483 82.0756 72.7549 76.4615 67.3776 72.6577L67.1636 73.0008V73.0001Z" fill="#FCFDFE"/>
<path d="M180.624 68.9398L180.668 69.3439C189.662 67.9376 199.356 68.6974 202.542 68.9472C203.313 69.0074 203.585 69.028 203.681 69.017L203.652 68.6107C203.579 68.618 203.138 68.5835 202.58 68.5394C199.384 68.2888 189.659 67.5262 180.625 68.9391L180.624 68.9398Z" fill="#FCFDFE"/>
<path d="M166.257 73.5491L166.411 73.9179C174.176 69.9915 180.244 52.7325 180.498 51.9999L180.144 51.8662C180.082 52.044 173.877 69.6961 166.257 73.5498L166.257 73.5491Z" fill="#FCFDFE"/>
</g>
</g>
<path d="M190.882 17.4138C184.231 -5.90534 148.499 6.41253 134.232 30.0571C130.093 36.9166 126.667 40.3919 123.6 41.7968C114.328 45.3522 107.907 49.7393 103.758 53.0867C91.7227 62.7992 89.5049 71.2722 78.2153 77.5241C71.0841 81.4726 64.0526 82.4755 59.3049 82.7187C59.4163 83.7576 59.3987 84.8377 59.2213 85.9545C58.9047 87.9486 58.5881 89.9427 58.2715 91.9367C62.3757 94.5113 66.7197 96.1762 69.5926 90.5011C74.0538 81.6886 89.5899 84.729 94.5693 88.4533C100.732 93.0631 115.294 103.481 122.392 89.9706C128.301 78.7232 129.96 70.2025 144.651 72.4265C159.342 74.6506 170.05 68.129 171.918 53.9339C173.885 38.9959 194.698 30.797 190.882 17.4138Z" fill="url(#paint2_linear_7_6315)"/>
<mask id="mask2_7_6315" style="mask-type:luminance" maskUnits="userSpaceOnUse" x="54" y="4" width="138" height="93">
<path d="M54.9985 90.1072C58.9306 92.8485 66.3835 96.8404 69.5928 90.5011C74.0548 81.6886 89.5901 84.729 94.5702 88.4533C100.733 93.0631 115.295 103.481 122.393 89.9706C128.302 78.7232 129.961 70.2025 144.652 72.4265C159.343 74.6506 170.051 68.1283 171.919 53.9339C173.886 38.9959 194.699 30.797 190.883 17.4138C184.232 -5.90534 148.499 6.41253 134.233 30.0571C119.966 53.7017 54.9993 90.1072 54.9993 90.1072H54.9985Z" fill="white"/>
</mask>
<g mask="url(#mask2_7_6315)">
<g style="mix-blend-mode:soft-light" opacity="0.5">
<path d="M130.288 57.5847C118.938 63.2231 106.983 67.5228 94.7409 70.3089C93.9186 70.7409 93.0904 71.1619 92.2578 71.5727C105.839 68.7278 119.1 64.0313 131.611 57.7052C131.17 57.6567 130.729 57.6163 130.287 57.584L130.288 57.5847Z" fill="#FCFDFE"/>
<path d="M189.494 7.72412C175.892 26.507 158.193 42.0371 138.278 53.3374C138.415 53.4762 138.555 53.6114 138.689 53.751C138.712 53.7745 138.746 53.8091 138.785 53.8495C158.704 42.511 176.407 26.9551 190.022 8.15394L189.493 7.72486L189.494 7.72412Z" fill="#FCFDFE"/>
<path d="M91.5727 71.9106C91.2421 72.0708 90.9101 72.2288 90.5781 72.386C108.736 76.826 119.679 96.2121 119.789 96.4112L120.366 96.0468C120.256 95.8477 109.509 76.7989 91.5727 71.9106Z" fill="#FCFDFE"/>
<path d="M99.9416 32.8278C100.178 32.0049 100.301 31.5288 100.312 31.4884L99.666 31.3091C99.655 31.351 99.5195 31.8734 99.2622 32.7661C99.4887 32.7852 99.7151 32.805 99.9416 32.8278Z" fill="#FCFDFE"/>
<path d="M139.468 54.571C139.656 54.7768 139.865 55.0111 140.081 55.2646C154.217 55.0729 169.91 66.379 170.086 66.5061L170.467 65.9198C170.288 65.789 153.989 54.0457 139.468 54.5703V54.571Z" fill="#FCFDFE"/>
<path d="M161.477 37.4874L161.965 37.968C173.992 24.2093 173.642 -1.03191 173.637 -1.28613L172.968 -1.26556C172.973 -1.01501 173.317 23.9425 161.477 37.4867V37.4874Z" fill="#FCFDFE"/>
</g>
</g>
<path d="M177.742 171.249L11.5203 186.291C9.03945 186.494 5.479 183.204 5.479 180.708V54.543C5.479 52.2072 7.35084 50.305 9.68001 50.2727L177.336 47.9487C179.711 47.9156 184.202 49.6717 184.202 52.0537L181.655 166.992C181.655 169.216 179.953 171.068 177.741 171.249H177.742Z" fill="url(#paint3_linear_7_6315)"/>
<path d="M181.119 172.416L13.4625 186.132C10.9816 186.335 8.85547 184.371 8.85547 181.876V55.7099C8.85547 53.3742 10.7273 51.472 13.0565 51.4396L180.713 49.1157C183.088 49.0826 185.032 51.0039 185.032 53.3859V168.159C185.032 170.383 183.329 172.235 181.118 172.416H181.119Z" fill="url(#paint4_linear_7_6315)"/>
<path d="M28.2758 181.012L170.285 169.675C172.552 169.495 174.3 167.597 174.3 165.317V56.4245C174.3 53.9837 172.307 52.0153 169.872 52.0528L27.8624 54.2386C25.4805 54.2754 23.5684 56.2217 23.5684 58.6103V176.653C23.5684 179.205 25.7385 181.214 28.2758 181.012Z" fill="url(#paint5_linear_7_6315)"/>
<path d="M180.232 114.51C179.412 114.51 178.747 113.844 178.747 113.021V101.984C178.747 101.162 179.412 100.496 180.232 100.496C181.052 100.496 181.717 101.162 181.717 101.984V113.021C181.717 113.844 181.052 114.51 180.232 114.51Z" fill="url(#paint6_linear_7_6315)"/>
<g opacity="0.9" style="mix-blend-mode:soft-light">
<path d="M149.23 145.414C136.297 134.105 125.929 138.529 112.247 127.037C95.2649 112.774 103.72 99.6205 88.7707 87.0601C70.0757 71.3536 47.4862 84.094 33.4569 68.3611C29.7851 64.2436 27.741 59.3414 26.6681 54.4268C24.8724 54.9705 23.5679 56.6376 23.5679 58.6096V176.653C23.5679 179.204 25.738 181.213 28.2753 181.011L164.26 170.155C161.774 161.696 157.346 152.51 149.229 145.412L149.23 145.414Z" fill="white"/>
</g>
<g style="mix-blend-mode:multiply" opacity="0.3">
<path d="M154.509 109.623L44.0328 113.792C42.1594 113.863 40.6372 112.504 40.6372 110.758V103.347C40.6372 101.611 42.1529 100.161 44.0188 100.107L154.075 96.9236C155.682 96.8773 157.027 98.1396 157.084 99.7443L157.324 106.592C157.381 108.205 156.122 109.563 154.509 109.624V109.623Z" fill="#97A6B7"/>
<path d="M48.4868 116.416L58.5034 153.134C59.1418 155.474 61.3933 156.997 63.9584 156.826L138.364 151.894C140.679 151.74 142.642 150.029 143.133 147.747L150.737 112.373L48.4868 116.416V116.416ZM76.8678 149.97C76.8839 151.447 75.6504 152.726 74.1113 152.825L71.4487 152.995C69.9008 153.094 68.6336 151.97 68.6211 150.484L68.3822 121.788C68.3698 120.329 69.6054 119.094 71.1379 119.031L73.7742 118.92C75.2986 118.856 76.5446 119.981 76.5607 121.432L76.8678 149.97V149.97ZM91.542 149.055C91.564 150.518 90.3598 151.783 88.85 151.88L86.2387 152.047C84.7208 152.144 83.472 151.031 83.4537 149.559L83.0923 121.147C83.074 119.702 84.2804 118.48 85.7836 118.418L88.37 118.31C89.8651 118.247 91.0927 119.361 91.1147 120.798L91.5427 149.056L91.542 149.055ZM105.935 148.158C105.963 149.607 104.788 150.859 103.307 150.953L100.745 151.117C99.2558 151.213 98.026 150.108 98.0018 148.652L97.5217 120.518C97.4976 119.087 98.6761 117.878 100.151 117.816L102.688 117.71C104.155 117.648 105.365 118.752 105.392 120.175L105.935 148.157V148.158ZM120.056 147.277C120.09 148.711 118.942 149.95 117.488 150.044L114.975 150.205C113.514 150.298 112.303 149.204 112.272 147.762L111.679 119.901C111.648 118.484 112.8 117.286 114.247 117.226L116.736 117.122C118.176 117.061 119.368 118.155 119.401 119.565L120.056 147.277H120.056ZM133.912 146.413C133.951 147.834 132.829 149.061 131.403 149.153L128.937 149.311C127.503 149.402 126.309 148.318 126.274 146.89L125.571 119.296C125.535 117.892 126.66 116.707 128.08 116.648L130.524 116.546C131.937 116.487 133.112 117.57 133.15 118.967L133.912 146.413Z" fill="#97A6B7"/>
<path d="M93.517 63.8326C92.9615 63.2397 91.8343 63.3279 90.9987 64.0318L56.2049 93.3052C55.3129 94.0561 55.0601 95.1582 55.6427 95.7665C56.2247 96.3742 57.4193 96.2559 58.309 95.5042L93.0142 66.1809C93.8483 65.4763 94.0725 64.4256 93.5177 63.8334L93.517 63.8326Z" fill="#97A6B7"/>
<path d="M107.236 63.6958C107.766 63.1022 108.885 63.1837 109.735 63.8773L143.512 91.4226C144.338 92.0964 144.601 93.1294 144.099 93.7304C143.597 94.3322 142.518 94.2734 141.69 93.5989L107.821 66.0301C106.968 65.3358 106.707 64.2902 107.237 63.6958H107.236Z" fill="#97A6B7"/>
</g>
<path d="M130.741 112.202C129.246 128.4 114.933 141.197 98.7218 140.783C82.4557 140.367 70.4478 126.815 71.9525 110.516C73.4564 94.2166 87.8961 81.4234 104.153 81.9399C120.354 82.455 132.236 96.0028 130.741 112.202Z" fill="url(#paint7_linear_7_6315)"/>
<path d="M101.729 129.976C91.4886 129.976 83.1577 121.624 83.1577 111.359C83.1577 101.093 91.4886 92.7412 101.729 92.7412C111.969 92.7412 120.3 101.093 120.3 111.359C120.3 121.624 111.969 129.976 101.729 129.976ZM101.729 99.589C95.255 99.589 89.9884 104.869 89.9884 111.359C89.9884 117.849 95.255 123.128 101.729 123.128C108.203 123.128 113.469 117.849 113.469 111.359C113.469 104.869 108.203 99.589 101.729 99.589Z" fill="white"/>
<path d="M93.1382 124.222C92.2675 124.222 91.3968 123.891 90.7306 123.226C89.3931 121.893 89.3865 119.725 90.716 118.384L109.256 99.6875C110.586 98.3459 112.748 98.34 114.086 99.6728C115.424 101.006 115.43 103.174 114.101 104.515L95.5612 123.212C94.8935 123.885 94.0162 124.222 93.1389 124.222H93.1382Z" fill="white"/>
<g style="mix-blend-mode:multiply" opacity="0.2">
<path d="M98.9201 132.98C96.7903 129.202 101.1 126.093 101.276 118.559C101.542 107.119 91.8695 102.97 93.1653 93.3195C93.5259 90.6362 94.8561 86.6224 99.8472 82.1147C85.4193 83.7385 73.3219 95.6721 71.9514 110.515C70.4475 126.815 82.4547 140.366 98.7207 140.782C104.267 140.924 109.589 139.519 114.253 136.961C108.183 137.371 101.173 136.977 98.9193 132.979L98.9201 132.98Z" fill="url(#paint8_linear_7_6315)"/>
</g>
<path d="M155.267 177.988C139.003 177.816 138.153 179.011 138.031 179.559C137.471 182.076 148.38 188.269 159.968 189.298C166.821 189.906 172.476 188.551 183.784 185.842C191.325 184.036 195.095 183.133 195.066 182.072C194.983 179.075 167.383 178.116 155.267 177.988Z" fill="#D8DEE8"/>
<path d="M161.487 180.564C160.004 180.865 156.367 175.994 157.389 171.977C158.514 167.559 164.271 168.114 166.083 163.296C167.563 159.362 164.304 157.609 165.358 152.241C166.073 148.596 168.574 144.829 172.012 142.905C176.507 140.389 179.507 142.76 182.427 140.123C185.863 137.02 184.16 131.522 185.488 131.267C187.417 130.897 193.732 141.99 190.108 147.328C187.061 151.816 179.63 148.347 175.873 153.352C172.714 157.561 176.797 161.573 173.29 166.538C170.401 170.626 166.061 169.579 163.517 174.345C161.78 177.599 162.554 180.347 161.486 180.565L161.487 180.564Z" fill="url(#paint9_linear_7_6315)"/>
<mask id="mask3_7_6315" style="mask-type:luminance" maskUnits="userSpaceOnUse" x="157" y="131" width="35" height="50">
<path d="M161.487 180.564C160.004 180.865 156.367 175.994 157.389 171.977C158.514 167.559 164.271 168.114 166.083 163.296C167.563 159.362 164.304 157.609 165.358 152.241C166.073 148.596 168.574 144.829 172.012 142.905C176.507 140.389 179.507 142.76 182.427 140.123C185.863 137.02 184.16 131.522 185.488 131.267C187.417 130.897 193.732 141.99 190.108 147.328C187.061 151.816 179.63 148.347 175.873 153.352C172.714 157.561 176.797 161.573 173.29 166.538C170.401 170.626 166.061 169.579 163.517 174.345C161.78 177.599 162.554 180.347 161.486 180.565L161.487 180.564Z" fill="white"/>
</mask>
<g mask="url(#mask3_7_6315)">
<g opacity="0.5" style="mix-blend-mode:soft-light">
<path d="M162.178 174.707L162.091 174.614C166.412 170.554 169.106 166.06 170.1 161.258C170.659 158.557 170.582 156.325 170.513 154.355C170.423 151.784 170.352 149.753 171.957 148.256C173.54 146.777 175.583 146.848 177.746 146.923C180.108 147.004 182.551 147.089 184.619 145.153C186.673 143.23 187.088 140.452 187.266 139.265C187.938 134.765 185.872 131.175 184.953 129.841L185.057 129.768C185.986 131.115 188.071 134.739 187.392 139.284C187.212 140.484 186.792 143.293 184.706 145.246C182.6 147.218 180.131 147.133 177.742 147.05C175.607 146.976 173.59 146.906 172.044 148.349C170.482 149.807 170.549 151.713 170.64 154.351C170.709 156.328 170.788 158.569 170.226 161.284C169.226 166.113 166.519 170.629 162.178 174.707Z" fill="white"/>
</g>
<g opacity="0.5" style="mix-blend-mode:soft-light">
<path d="M184.547 146.35C184.202 146.238 183.92 146.06 183.746 145.789C183.362 145.19 183.723 144.469 184.14 143.633C184.585 142.745 185.087 141.739 184.972 140.52C184.812 138.84 183.497 137.219 181.064 135.701L181.131 135.593C183.6 137.133 184.935 138.787 185.098 140.509C185.218 141.763 184.684 142.831 184.254 143.69C183.837 144.524 183.508 145.182 183.853 145.72C184.522 146.763 187.023 146.324 188.225 146.113C191.003 145.624 193.623 144.382 196.016 142.42L196.097 142.519C193.687 144.495 191.046 145.746 188.247 146.238C187.316 146.402 185.625 146.699 184.547 146.35Z" fill="white"/>
</g>
<g opacity="0.5" style="mix-blend-mode:soft-light">
<path d="M170.524 153.291L170.495 153.255C169.787 152.389 169.383 151.474 169.294 150.534C169.112 148.624 170.27 147.031 171.292 145.625C172.236 144.326 173.051 143.204 172.663 142.115C172.443 141.5 171.858 140.998 170.924 140.622L170.972 140.504C171.941 140.893 172.55 141.422 172.783 142.073C173.194 143.225 172.361 144.372 171.395 145.7C170.387 147.088 169.244 148.66 169.421 150.521C169.507 151.422 169.891 152.302 170.564 153.138C171.788 152.652 173.055 152.399 174.333 152.385C178.314 152.343 181.202 154.681 182.26 155.689L182.173 155.781C181.127 154.785 178.27 152.472 174.335 152.513C173.058 152.526 171.792 152.782 170.569 153.274L170.526 153.291H170.524Z" fill="white"/>
</g>
<g opacity="0.5" style="mix-blend-mode:soft-light">
<path d="M168.705 165.91L168.683 165.888C168.574 165.779 157.769 155.028 157.279 154.69L157.351 154.584C157.844 154.925 168.061 165.09 168.75 165.776L185.485 163.697L185.501 163.823L168.704 165.91H168.705Z" fill="white"/>
</g>
</g>
<path d="M161.524 184.027C160.601 183.698 159.279 183.123 157.886 182.104C156.423 181.033 155.023 180.009 154.488 178.291C153.869 176.308 155.101 175.684 154.482 173.866C153.779 171.8 151.911 172.011 151.183 169.864C150.689 168.407 151.113 167.023 151.488 165.801C151.937 164.335 152.959 162.227 153.627 162.364C154.418 162.525 153.356 165.564 155.156 167.659C156.52 169.245 158.106 168.638 159.455 170.491C159.637 170.742 160.655 172.139 160.433 173.809C160.161 175.857 158.532 176.4 158.144 178.097C157.868 179.308 158.32 181.17 161.524 184.027Z" fill="url(#paint10_linear_7_6315)"/>
<mask id="mask4_7_6315" style="mask-type:luminance" maskUnits="userSpaceOnUse" x="150" y="162" width="12" height="23">
<path d="M161.524 184.027C160.601 183.698 159.279 183.123 157.886 182.104C156.423 181.033 155.023 180.009 154.488 178.291C153.869 176.308 155.101 175.684 154.482 173.866C153.779 171.8 151.911 172.011 151.183 169.864C150.689 168.407 151.113 167.023 151.488 165.801C151.937 164.335 152.959 162.227 153.627 162.364C154.418 162.525 153.356 165.564 155.156 167.659C156.52 169.245 158.106 168.638 159.455 170.491C159.637 170.742 160.655 172.139 160.433 173.809C160.161 175.857 158.532 176.4 158.144 178.097C157.868 179.308 158.32 181.17 161.524 184.027Z" fill="white"/>
</mask>
<g mask="url(#mask4_7_6315)">
<g opacity="0.3" style="mix-blend-mode:soft-light">
<path d="M161.975 184.747C161.684 184.468 161.296 184.136 160.885 183.785C159.085 182.244 156.619 180.132 156.889 178.134C157.031 177.082 157.211 176.264 157.355 175.605C157.634 174.336 157.801 173.569 157.412 172.574C156.95 171.394 156.109 170.893 155.22 170.364C154.42 169.887 153.592 169.394 153.039 168.37C152.14 166.71 152.396 164.376 153.797 161.435L153.911 161.49C152.529 164.392 152.272 166.687 153.15 168.309C153.688 169.302 154.5 169.786 155.285 170.254C156.153 170.772 157.052 171.307 157.53 172.527C157.933 173.558 157.763 174.339 157.479 175.632C157.335 176.288 157.156 177.104 157.015 178.151C156.754 180.08 159.19 182.166 160.968 183.688C161.38 184.041 161.769 184.374 162.063 184.655L161.975 184.747Z" fill="white"/>
</g>
<g opacity="0.3" style="mix-blend-mode:soft-light">
<path d="M153.821 170.179C153.274 170.002 152.676 169.704 152.123 169.208C150.12 167.411 150.58 164.62 150.601 164.502L150.726 164.524C150.706 164.64 150.258 167.363 152.209 169.114C153.218 170.02 154.388 170.247 155.086 170.294C154.781 169.971 154.063 169.067 154.214 167.829C154.34 166.798 154.991 166.15 155.265 165.92L155.346 166.018C155.084 166.239 154.459 166.858 154.339 167.845C154.168 169.255 155.175 170.214 155.29 170.319L155.419 170.435L155.245 170.43C154.897 170.418 154.385 170.363 153.819 170.18L153.821 170.179Z" fill="white"/>
</g>
<g opacity="0.3" style="mix-blend-mode:soft-light">
<path d="M157.502 175.133L157.48 175.056C157.291 174.398 156.874 173.466 155.967 172.753C153.919 171.145 151.272 172.184 151.16 172.229L151.112 172.111C151.227 172.064 153.94 171 156.045 172.653C156.943 173.358 157.374 174.272 157.579 174.942C157.995 174.692 159.058 173.928 159.4 172.505C159.874 170.53 158.567 169.055 158.416 168.893L158.509 168.807C158.664 168.973 160.013 170.496 159.523 172.535C159.148 174.095 157.934 174.888 157.571 175.094L157.501 175.133L157.502 175.133Z" fill="white"/>
</g>
<g opacity="0.3" style="mix-blend-mode:soft-light">
<path d="M156.922 179.073L156.888 178.978C156.592 178.161 156.11 177.409 155.494 176.805C154.618 175.948 153.654 175.549 152.998 175.366L153.032 175.244C153.702 175.43 154.688 175.837 155.583 176.714C156.19 177.307 156.668 178.041 156.973 178.839L160.768 174.941L160.859 175.03L156.923 179.073H156.922Z" fill="white"/>
</g>
</g>
<path d="M159.128 134.462C158.18 134.905 159.821 137.45 159.114 141.627C157.99 148.265 152.485 149.915 152.955 155.085C153.208 157.87 154.416 159.793 154.416 159.793C154.813 160.425 155.112 160.72 156.492 162.589C156.62 162.763 157.856 164.44 158.157 164.904C160.2 168.047 156.041 172.653 157.304 177.154C158.176 180.264 160.469 182.376 162.35 183.706C158.822 178.148 158.862 174.583 159.639 172.312C160.718 169.162 163.165 168.644 164.469 164.678C165.38 161.908 164.53 161.116 164.552 156.024C164.587 148.148 166.632 147.295 165.594 142.972C164.375 137.898 160.312 133.91 159.128 134.463V134.462Z" fill="url(#paint11_linear_7_6315)"/>
<mask id="mask5_7_6315" style="mask-type:luminance" maskUnits="userSpaceOnUse" x="152" y="134" width="14" height="50">
<path d="M159.128 134.462C158.18 134.905 159.821 137.45 159.114 141.627C157.99 148.265 152.485 149.915 152.955 155.085C153.208 157.87 154.416 159.793 154.416 159.793C154.813 160.425 155.112 160.72 156.492 162.589C156.62 162.763 157.856 164.44 158.157 164.904C160.2 168.047 156.041 172.653 157.304 177.154C158.176 180.264 160.469 182.376 162.35 183.706C158.822 178.148 158.862 174.583 159.639 172.312C160.718 169.162 163.165 168.644 164.469 164.678C165.38 161.908 164.53 161.116 164.552 156.024C164.587 148.148 166.632 147.295 165.594 142.972C164.375 137.898 160.312 133.91 159.128 134.463V134.462Z" fill="white"/>
</mask>
<g mask="url(#mask5_7_6315)">
<g opacity="0.5" style="mix-blend-mode:soft-light">
<path d="M158.74 179.408C158.015 176.851 157.933 174.393 158.498 172.101C158.932 170.341 159.582 169.32 160.212 168.332C160.822 167.376 161.398 166.471 161.677 164.986C162.076 162.867 161.49 161.643 160.813 160.227C160.238 159.024 159.585 157.66 159.48 155.511C159.337 152.58 160.329 150.749 161.289 148.978C162.189 147.319 163.038 145.752 163.013 143.353C162.978 140.046 161.212 136.678 157.763 133.342L157.851 133.25C161.325 136.611 163.104 140.01 163.14 143.351C163.166 145.783 162.269 147.438 161.401 149.038C160.45 150.793 159.465 152.608 159.607 155.504C159.711 157.627 160.357 158.979 160.927 160.172C161.615 161.608 162.208 162.849 161.802 165.009C161.518 166.519 160.935 167.433 160.318 168.401C159.695 169.379 159.049 170.392 158.62 172.132C158.061 174.401 158.142 176.838 158.861 179.372L158.739 179.407L158.74 179.408Z" fill="white"/>
</g>
<g opacity="0.5" style="mix-blend-mode:soft-light">
<path d="M162.21 147.337L162.213 147.233C162.235 146.428 162.115 144.363 160.512 142.591C159.063 140.988 157.233 140.587 156.512 140.487L156.53 140.361C157.263 140.461 159.129 140.871 160.607 142.505C162.175 144.239 162.351 146.248 162.342 147.132C163.352 146.635 164.219 145.905 164.853 145.018C166.329 142.951 166.143 140.67 165.995 139.785L166.12 139.764C166.272 140.664 166.461 142.986 164.957 145.092C164.291 146.025 163.373 146.786 162.304 147.292L162.21 147.336V147.337Z" fill="white"/>
</g>
<g opacity="0.5" style="mix-blend-mode:soft-light">
<path d="M160.527 159.466L160.462 159.437C159.465 158.988 158.695 158.361 158.172 157.573C157.563 156.654 157.48 155.803 157.392 154.903C157.338 154.354 157.283 153.787 157.105 153.172C156.651 151.611 155.508 150.198 153.708 148.972L153.779 148.867C155.604 150.11 156.764 151.547 157.226 153.137C157.408 153.763 157.464 154.336 157.519 154.891C157.605 155.775 157.686 156.61 158.279 157.503C158.776 158.253 159.506 158.854 160.45 159.291C160.807 158.177 161.265 157.093 161.811 156.066C162.822 154.163 164.139 152.438 165.726 150.938L165.814 151.031C164.236 152.521 162.927 154.235 161.923 156.126C161.37 157.168 160.908 158.268 160.548 159.399L160.527 159.467V159.466Z" fill="white"/>
</g>
<g opacity="0.5" style="mix-blend-mode:soft-light">
<path d="M161.302 166.515L161.28 166.405C161.175 165.892 160.703 164.135 159.017 163.047C156.817 161.626 154.441 162.535 154.177 162.643L154.129 162.526C154.399 162.415 156.831 161.485 159.086 162.94C160.708 163.988 161.234 165.64 161.38 166.271C162.242 165.477 162.988 164.573 163.596 163.581C164.587 161.968 165.219 160.097 165.421 158.172L165.548 158.186C165.343 160.13 164.705 162.019 163.704 163.648C163.07 164.681 162.289 165.62 161.383 166.44L161.3 166.515H161.302Z" fill="white"/>
</g>
</g>
<path d="M162.747 184.281C161.685 183.724 159.753 182.518 158.662 180.411C156.709 176.638 158.627 172.24 161.201 170.144C164.414 167.527 167.003 169.836 170.036 167.371C173.48 164.572 171.246 160.695 174.827 157.792C177.258 155.822 180.432 155.869 183.239 155.911C186.605 155.961 191.808 156.841 192.184 158.359C192.631 160.159 185.528 159.773 183.092 164.946C181.247 168.864 184 171.888 181.609 175.939C181.285 176.488 179.481 179.545 175.929 180.11C171.284 180.849 167.981 176.638 165.142 177.871C163.989 178.372 162.758 179.836 162.747 184.281Z" fill="url(#paint12_linear_7_6315)"/>
<mask id="mask6_7_6315" style="mask-type:luminance" maskUnits="userSpaceOnUse" x="157" y="155" width="36" height="30">
<path d="M162.747 184.281C161.685 183.724 159.753 182.518 158.662 180.411C156.709 176.638 158.627 172.24 161.201 170.144C164.414 167.527 167.003 169.836 170.036 167.371C173.481 164.572 171.246 160.695 174.827 157.792C177.258 155.822 180.432 155.869 183.239 155.911C186.605 155.961 191.808 156.841 192.184 158.359C192.631 160.159 185.528 159.773 183.092 164.946C181.247 168.864 184 171.887 181.609 175.939C181.285 176.488 179.481 179.545 175.929 180.11C171.284 180.849 167.981 176.638 165.142 177.871C163.989 178.372 162.758 179.836 162.747 184.281Z" fill="white"/>
</mask>
<g mask="url(#mask6_7_6315)">
<g opacity="0.74" style="mix-blend-mode:soft-light">
<path d="M162.364 185.592C160.191 180.76 159.856 177.279 161.368 175.248C162.574 173.628 164.438 173.497 166.596 173.345C168.783 173.192 171.26 173.018 173.509 171.17C175.563 169.484 176.072 167.557 176.611 165.517C177.099 163.667 177.605 161.753 179.376 160.063C182.211 157.357 186.97 156.557 193.522 157.683L193.5 157.809C186.991 156.69 182.268 157.479 179.463 160.155C177.718 161.82 177.217 163.717 176.733 165.55C176.213 167.52 175.675 169.556 173.589 171.268C171.308 173.141 168.81 173.317 166.604 173.471C164.477 173.62 162.641 173.749 161.47 175.323C159.988 177.314 160.327 180.751 162.48 185.538L162.364 185.59V185.592Z" fill="white"/>
</g>
<g opacity="0.74" style="mix-blend-mode:soft-light">
<path d="M174.91 170.164C174.857 170.146 174.805 170.125 174.756 170.099C173.884 169.645 173.9 168.042 173.916 166.493C173.94 164.066 174.622 162.157 175.028 161.236C176.321 158.29 178.408 156.364 179.931 155.266L180.005 155.37C178.495 156.458 176.425 158.367 175.143 161.287C174.742 162.2 174.067 164.09 174.043 166.494C174.027 168.006 174.012 169.569 174.814 169.987C176.079 170.646 178.691 168.127 179.673 167.178L179.748 167.105C180.407 166.47 180.845 165.892 181.232 165.383C181.775 164.667 182.243 164.049 183.121 163.522C184.445 162.728 186.127 162.501 188.119 162.848L188.097 162.974C186.135 162.632 184.483 162.854 183.185 163.632C182.329 164.146 181.866 164.755 181.332 165.461C180.943 165.974 180.502 166.555 179.835 167.198L179.76 167.27C178.796 168.2 176.296 170.615 174.909 170.165L174.91 170.164Z" fill="white"/>
</g>
<g opacity="0.74" style="mix-blend-mode:soft-light">
<path d="M172.699 176.885C171.327 176.439 169.719 175.257 167.893 173.347L167.837 173.289L167.906 173.248C169.064 172.563 169.963 171.684 170.58 170.637C171.302 169.409 171.418 168.296 171.577 166.756L171.59 166.63C172.065 162.059 172.304 159.764 172.699 158.796C173.468 156.91 175.056 155.307 177.419 154.033L177.479 154.145C175.143 155.405 173.574 156.986 172.817 158.844C172.43 159.795 172.191 162.083 171.717 166.642L171.704 166.769C171.543 168.325 171.426 169.449 170.689 170.701C170.074 171.747 169.183 172.625 168.039 173.315C170.78 176.167 173.006 177.354 174.656 176.842C175.576 176.557 176.079 175.831 176.663 174.99C177.248 174.148 177.91 173.193 179.146 172.444C180.745 171.474 182.762 171.183 185.142 171.578L185.121 171.704C182.772 171.314 180.784 171.6 179.212 172.553C177.999 173.288 177.345 174.231 176.768 175.063C176.171 175.923 175.656 176.666 174.694 176.964C174.098 177.148 173.432 177.121 172.699 176.884V176.885Z" fill="white"/>
</g>
<path d="M170.699 181.462C167.454 180.41 165.673 178.042 165.654 178.016C165.555 177.881 165.455 177.737 165.352 177.589C164.812 176.81 164.199 175.928 163.106 175.638C162.512 175.481 161.859 175.523 161.168 175.762L161.084 175.791V175.702C161.076 174.879 161.269 174.172 161.655 173.599C162.147 172.87 162.88 172.577 163.525 172.319C164.185 172.054 164.755 171.826 164.957 171.214C165.435 169.769 164.688 168.495 164.533 168.254L164.64 168.185C164.8 168.434 165.573 169.754 165.078 171.253C164.858 171.922 164.233 172.172 163.573 172.436C162.944 172.688 162.232 172.973 161.76 173.67C161.402 174.2 161.217 174.853 161.211 175.612C161.896 175.389 162.545 175.356 163.139 175.513C164.279 175.814 164.905 176.718 165.457 177.515C165.559 177.662 165.659 177.805 165.757 177.939C165.777 177.965 167.774 180.62 171.394 181.527C174.896 182.406 178.392 179.819 179.732 178.665L179.815 178.762C178.46 179.928 174.923 182.543 171.363 181.651C171.136 181.593 170.914 181.529 170.7 181.46L170.699 181.462Z" fill="white"/>
</g>
<path d="M53.1898 180.263L94.4852 169.908L96.5506 179.966L58.7459 197.458L28.8119 190.045L10.7539 172.271L53.1898 180.263Z" fill="url(#paint13_linear_7_6315)"/>
<path d="M53.1898 180.263L94.4852 169.908L96.5506 179.966L58.7459 197.458L28.8119 190.045L10.7539 172.271L53.1898 180.263Z" fill="url(#paint14_linear_7_6315)"/>
<path d="M51.8916 194.184C60.0994 189.773 66.1612 185.28 70.2758 181.884C78.3714 175.202 82.085 170.161 90.2811 168.17C91.7462 167.814 100.091 165.785 102.784 169.501C105.766 173.614 99.9694 182.216 99.265 183.26C88.794 198.798 62.1295 198.073 53.7656 197.569C53.1412 196.44 52.5168 195.312 51.8923 194.184H51.8916Z" fill="url(#paint15_linear_7_6315)"/>
<path opacity="0.3" d="M102.784 169.501C101.997 168.415 100.722 167.829 99.2821 167.539C99.7614 169.202 99.8046 170.762 99.2058 172.125C97.57 175.851 92.7248 174.703 89.3212 179.077C85.9791 183.371 88.2922 187.51 85.3378 189.281C81.9511 191.311 77.753 186.569 74.1259 188.838C71.6597 190.381 72.427 193.307 69.5526 194.901C67.5664 196.004 65.6191 195.482 63.3566 195.198C60.7628 194.871 57.2097 194.801 52.75 195.735C53.0879 196.347 53.4265 196.958 53.7651 197.569C62.129 198.073 88.7935 198.798 99.2645 183.261C99.9688 182.216 105.765 173.615 102.784 169.502V169.501Z" fill="url(#paint16_linear_7_6315)" style="mix-blend-mode:multiply"/>
<path d="M58.0964 196.506C58.0964 196.506 59.6003 195.425 61.7829 196.162C63.9655 196.899 67.4307 197.493 67.4255 198.563C67.4204 199.632 63.953 200.302 61.5572 199.862C59.2654 199.441 57.4632 197.445 58.0971 196.506H58.0964Z" fill="url(#paint17_linear_7_6315)"/>
<path d="M55.8924 194.681L59.9087 195.976C59.9087 195.976 60.561 197.066 59.6808 197.756C58.8006 198.447 55.7407 196.986 55.7407 196.986L55.8924 194.681Z" fill="url(#paint18_linear_7_6315)"/>
<path d="M0.066521 176.119C-1.11932 183.041 13.7821 190.529 17.1937 192.243C24.1461 195.737 37.2284 200.668 56.6438 198.784C56.9017 197.231 57.1604 195.679 57.4184 194.126C54.8533 193.245 51.0524 191.813 46.6418 189.638C39.1149 185.926 36.2566 183.275 25.8112 176.944C14.2533 169.939 10.8864 169.041 7.44246 169.907C4.49766 170.648 0.616932 172.903 0.0657881 176.119L0.066521 176.119Z" fill="url(#paint19_linear_7_6315)"/>
<path d="M15.594 162.957C13.075 153.824 17.2328 141.5 25.9947 135.558C33.1463 130.708 41.5256 131.023 44.1406 131.121C47.0026 131.228 46.7073 131.601 55.7176 133.272C68.226 135.593 69.3811 135.03 73.02 136.779C79.8616 140.066 83.1817 146.039 83.8032 147.201C86.9825 153.149 89.5704 164.205 83.5313 169.612C80.0984 172.686 75.2854 172.673 72.5773 172.385C72.3926 171.164 72.2086 169.945 72.024 168.724C72.5751 168.297 75.827 165.683 76.2286 161.071C76.6903 155.769 72.9943 152.348 72.5773 151.974C71.2661 154.512 69.653 158.364 68.926 163.289C67.9879 169.648 68.959 174.878 69.782 177.953C66.4737 179.773 61.004 182.243 53.878 183.033C48.5095 183.628 41.8628 182.489 37.6127 179.159C31.616 174.461 31.1096 164.104 37.0315 151.371C34.8635 152.826 31.723 155.46 30.4207 159.628C30.2235 160.259 29.89 161.496 29.7567 166.283C29.517 174.887 18.2046 172.42 15.594 162.956V162.957Z" fill="url(#paint20_linear_7_6315)"/>
<path opacity="0.3" d="M56.2012 169.279C53.1838 169.65 52.3623 172.791 49.5626 172.607C43.4699 172.207 38.58 161.633 41.1532 155.858C42.8308 152.092 47.2056 151.435 46.9065 148.981C46.6676 147.017 43.6319 145.505 41.1532 145.431C37.2938 145.316 34.7447 148.686 33.8506 149.868C31.7603 152.632 31.3096 155.665 31.2627 157.617C32.7967 154.601 35.2394 152.575 37.0314 151.371C31.1088 164.105 31.616 174.228 37.6126 178.926C41.862 182.255 48.5094 183.629 53.8779 183.034C59.6613 182.393 64.354 180.645 67.6851 179.036C64.4478 173.753 60.3253 168.772 56.2012 169.279Z" fill="url(#paint21_linear_7_6315)" style="mix-blend-mode:multiply"/>
<path d="M66.7166 177.895L31.4082 177.366L40.7974 181.909L66.8075 180.202L66.7166 177.895Z" fill="url(#paint22_linear_7_6315)"/>
<path d="M17.3016 156.871C20.0265 154.286 26.7106 155.914 29.204 159.629C31.0399 162.364 29.5206 164.614 30.864 168.06C32.5094 172.281 38.7171 176.096 42.5311 177.367C41.9338 178.655 42.1097 178.989 41.5123 180.278C39.0857 179.973 21.5451 177.28 17.254 166.839C17.0304 166.295 14.3795 159.644 17.3016 156.871Z" fill="url(#paint23_linear_7_6315)"/>
<path d="M57.117 129.614C57.117 129.614 54.2616 132.709 51.8914 133.032C49.5212 133.354 46.0956 132.722 45.5056 133.032C44.9156 133.34 48.4826 134.613 51.3116 135.391C54.1407 136.169 59.2768 137.723 60.6972 137.383C62.1176 137.043 59.1457 135.217 57.9686 134.733C56.7916 134.249 58.4765 131.764 58.4765 131.764L57.1177 129.615L57.117 129.614Z" fill="white"/>
<path d="M61.353 131.386C62.3857 131.101 63.3289 129.939 63.3172 128.735C63.3069 127.699 62.5813 126.992 62.1475 126.569C60.8891 125.342 58.7013 124.574 57.1161 125.381C56.1765 125.859 55.7477 128.028 55.6525 128.404C55.5447 128.83 55.7104 129.132 55.7565 129.552C55.8196 130.134 55.9126 131.053 56.0475 132.575C56.3128 132.361 56.6595 132.111 57.0838 131.877C57.2473 131.788 57.8915 131.442 58.5885 131.28C59.9847 130.956 60.3753 131.658 61.3545 131.387L61.353 131.386Z" fill="url(#paint24_linear_7_6315)"/>
<path d="M55.4548 130.924C55.4548 130.924 55.2151 133.119 57.114 134.398C58.8144 135.542 61.8479 132.086 61.4074 130.514C61.2601 129.991 60.6518 129.35 59.9687 129.074C59.5656 128.91 59.3465 128.962 58.6927 128.683C58.0895 128.426 57.9906 128.26 57.7399 128.271C57.427 128.284 56.9865 128.57 56.4859 129.878C56.4178 129.326 56.14 128.919 55.7816 128.841C55.7245 128.828 55.5552 128.818 55.4042 128.885C54.8582 129.126 54.8296 129.949 55.4548 130.924V130.924Z" fill="white"/>
<path d="M57.8338 127.997C57.8668 128.116 57.4036 128.223 57.0687 128.623C56.4179 129.399 56.4875 130.987 57.2512 131.707C57.7026 132.132 58.064 131.94 58.9369 132.479C59.4777 132.812 59.8449 133.197 60.0626 133.457C59.6404 134.532 58.7272 135.225 57.828 135.18C56.8598 135.13 56.2574 134.242 56.0052 133.87C55.8367 133.621 55.2958 132.826 55.4284 131.869C55.567 130.872 56.2742 130.753 56.1826 129.936C56.1364 129.524 55.9158 129.19 55.9759 128.508C55.9921 128.322 56.0243 128.171 56.0485 128.073C56.807 127.951 57.7855 127.825 57.8338 127.997Z" fill="url(#paint25_linear_7_6315)"/>
<path d="M59.225 133.329C59.225 133.329 58.7347 133.242 58.1565 132.741C58.1286 132.717 58.089 132.701 58.0736 132.713C58.0157 132.76 58.2056 133.317 58.6394 133.492C58.948 133.616 59.3306 133.528 59.343 133.441C59.3482 133.404 59.2881 133.363 59.2243 133.329H59.225Z" fill="url(#paint26_linear_7_6315)"/>
<path d="M43.4678 159.578L40.9789 182.296C40.8931 183.08 41.9873 184.247 42.7737 184.21L79.2848 181.963C79.8843 181.934 80.3842 181.492 80.486 180.898L85.0689 158.957C85.2059 158.158 83.7739 157.334 82.9662 157.356L44.7049 158.435C44.0659 158.453 43.5382 158.941 43.4685 159.578L43.4678 159.578Z" fill="url(#paint27_linear_7_6315)"/>
<path d="M44.3019 160.241L41.813 182.958C41.7272 183.742 42.3604 184.417 43.1461 184.38L80.1189 182.625C80.7184 182.597 81.2183 182.154 81.3202 181.561L85.0975 159.519C85.2346 158.721 84.608 157.996 83.8003 158.019L45.5391 159.098C44.9 159.115 44.3723 159.603 44.3026 160.24L44.3019 160.241Z" fill="url(#paint28_linear_7_6315)"/>
<path opacity="0.3" d="M66.0117 177.302C62.7833 175.93 63.923 173.315 60.1104 170.056C55.0812 165.756 49.9553 167.621 48.1604 164.288C47.6012 163.25 47.3344 161.635 48.3077 159.021L45.5373 159.098C44.8983 159.116 44.3706 159.604 44.3009 160.241L41.812 182.958C41.7262 183.742 42.3595 184.417 43.1451 184.38L80.1179 182.625C80.7175 182.597 81.2173 182.154 81.3192 181.561L81.8403 178.519C80.7182 177.893 79.3777 177.324 77.8137 177.006C72.3895 175.903 69.7283 178.881 66.0117 177.302Z" fill="url(#paint29_linear_7_6315)" style="mix-blend-mode:multiply"/>
<path d="M40.4048 179.487C41.9497 180.936 42.9817 180.807 43.3283 180.727C43.9095 180.592 43.9872 180.268 45.4618 179.111C46.7788 178.078 47.1944 177.962 47.179 177.606C47.1497 176.931 45.6143 176.34 44.3647 176.277C42.6123 176.189 41.2879 177.133 40.7683 177.553L40.4055 179.487H40.4048Z" fill="white"/>
</g>
<defs>
<linearGradient id="paint0_linear_7_6315" x1="127.517" y1="18.076" x2="-14.7685" y2="101.161" gradientUnits="userSpaceOnUse">
<stop stop-color="#E38DDD"/>
<stop offset="1" stop-color="#9571F6"/>
</linearGradient>
<linearGradient id="paint1_linear_7_6315" x1="203.821" y1="76.7138" x2="42.3106" y2="87.4022" gradientUnits="userSpaceOnUse">
<stop stop-color="#FFC444"/>
<stop offset="1" stop-color="#F36F56"/>
</linearGradient>
<linearGradient id="paint2_linear_7_6315" x1="180.155" y1="36.4075" x2="40.0217" y2="88.0205" gradientUnits="userSpaceOnUse">
<stop stop-color="#FF9085"/>
<stop offset="1" stop-color="#FB6FBB"/>
</linearGradient>
<linearGradient id="paint3_linear_7_6315" x1="31.1218" y1="7.60646" x2="72.2776" y2="77.6379" gradientUnits="userSpaceOnUse">
<stop stop-color="#444B8C"/>
<stop offset="1" stop-color="#26264F"/>
</linearGradient>
<linearGradient id="paint4_linear_7_6315" x1="77.7909" y1="57.9898" x2="164.53" y2="326.74" gradientUnits="userSpaceOnUse">
<stop stop-color="#444B8C"/>
<stop offset="1" stop-color="#26264F"/>
</linearGradient>
<linearGradient id="paint5_linear_7_6315" x1="23.5684" y1="116.539" x2="174.3" y2="116.539" gradientUnits="userSpaceOnUse">
<stop offset="0.49" stop-color="#EBEFF2"/>
<stop offset="1" stop-color="white"/>
</linearGradient>
<linearGradient id="paint6_linear_7_6315" x1="192.361" y1="84.8413" x2="175.383" y2="116.403" gradientUnits="userSpaceOnUse">
<stop stop-color="#444B8C"/>
<stop offset="1" stop-color="#26264F"/>
</linearGradient>
<linearGradient id="paint7_linear_7_6315" x1="72.1403" y1="108.653" x2="130.59" y2="114.041" gradientUnits="userSpaceOnUse">
<stop stop-color="#FF9085"/>
<stop offset="1" stop-color="#FB6FBB"/>
</linearGradient>
<linearGradient id="paint8_linear_7_6315" x1="72.1111" y1="108.965" x2="116.478" y2="113.055" gradientUnits="userSpaceOnUse">
<stop stop-color="#FF9085"/>
<stop offset="1" stop-color="#FB6FBB"/>
</linearGradient>
<linearGradient id="paint9_linear_7_6315" x1="174.834" y1="133.519" x2="173.556" y2="184.163" gradientUnits="userSpaceOnUse">
<stop stop-color="#E38DDD"/>
<stop offset="1" stop-color="#9571F6"/>
</linearGradient>
<linearGradient id="paint10_linear_7_6315" x1="151.8" y1="177.53" x2="156.428" y2="174.006" gradientUnits="userSpaceOnUse">
<stop stop-color="#AA80F9"/>
<stop offset="1" stop-color="#6165D7"/>
</linearGradient>
<linearGradient id="paint11_linear_7_6315" x1="155.888" y1="134.004" x2="168.643" y2="193.517" gradientUnits="userSpaceOnUse">
<stop stop-color="#AA80F9"/>
<stop offset="1" stop-color="#6165D7"/>
</linearGradient>
<linearGradient id="paint12_linear_7_6315" x1="195.724" y1="160.542" x2="171.167" y2="171.723" gradientUnits="userSpaceOnUse">
<stop stop-color="#AA80F9"/>
<stop offset="1" stop-color="#6165D7"/>
</linearGradient>
<linearGradient id="paint13_linear_7_6315" x1="54.1228" y1="166.811" x2="53.233" y2="184.337" gradientUnits="userSpaceOnUse">
<stop stop-color="#FF9085"/>
<stop offset="1" stop-color="#FB6FBB"/>
</linearGradient>
<linearGradient id="paint14_linear_7_6315" x1="54.1228" y1="166.811" x2="53.233" y2="184.337" gradientUnits="userSpaceOnUse">
<stop stop-color="#AA80F9"/>
<stop offset="1" stop-color="#6165D7"/>
</linearGradient>
<linearGradient id="paint15_linear_7_6315" x1="51.8916" y1="182.533" x2="103.63" y2="182.533" gradientUnits="userSpaceOnUse">
<stop stop-color="#AA80F9"/>
<stop offset="1" stop-color="#6165D7"/>
</linearGradient>
<linearGradient id="paint16_linear_7_6315" x1="51.8918" y1="182.653" x2="103.63" y2="182.653" gradientUnits="userSpaceOnUse">
<stop stop-color="#AA80F9"/>
<stop offset="1" stop-color="#6165D7"/>
</linearGradient>
<linearGradient id="paint17_linear_7_6315" x1="66.5424" y1="202.715" x2="56.5542" y2="190.316" gradientUnits="userSpaceOnUse">
<stop stop-color="#311944"/>
<stop offset="1" stop-color="#6B3976"/>
</linearGradient>
<linearGradient id="paint18_linear_7_6315" x1="60.4284" y1="199.765" x2="46.6663" y2="182.495" gradientUnits="userSpaceOnUse">
<stop stop-color="#FFC444"/>
<stop offset="1" stop-color="#F36F56"/>
</linearGradient>
<linearGradient id="paint19_linear_7_6315" x1="30.891" y1="181.952" x2="19.4443" y2="205.702" gradientUnits="userSpaceOnUse">
<stop stop-color="#AA80F9"/>
<stop offset="1" stop-color="#6165D7"/>
</linearGradient>
<linearGradient id="paint20_linear_7_6315" x1="27.2487" y1="208.819" x2="51.3486" y2="157.134" gradientUnits="userSpaceOnUse">
<stop stop-color="#F36F56"/>
<stop offset="1" stop-color="#FFC444"/>
</linearGradient>
<linearGradient id="paint21_linear_7_6315" x1="47.7193" y1="139.868" x2="49.6034" y2="170.274" gradientUnits="userSpaceOnUse">
<stop stop-color="#F36F56"/>
<stop offset="1" stop-color="#FFC444"/>
</linearGradient>
<linearGradient id="paint22_linear_7_6315" x1="31.4082" y1="179.638" x2="66.8075" y2="179.638" gradientUnits="userSpaceOnUse">
<stop stop-color="#AA80F9"/>
<stop offset="1" stop-color="#6165D7"/>
</linearGradient>
<linearGradient id="paint23_linear_7_6315" x1="12.5179" y1="204.661" x2="37.317" y2="151.476" gradientUnits="userSpaceOnUse">
<stop stop-color="#F36F56"/>
<stop offset="1" stop-color="#FFC444"/>
</linearGradient>
<linearGradient id="paint24_linear_7_6315" x1="49.5379" y1="134.337" x2="61.6205" y2="127.061" gradientUnits="userSpaceOnUse">
<stop stop-color="#311944"/>
<stop offset="1" stop-color="#6B3976"/>
</linearGradient>
<linearGradient id="paint25_linear_7_6315" x1="50.4099" y1="135.798" x2="62.5056" y2="128.513" gradientUnits="userSpaceOnUse">
<stop stop-color="#311944"/>
<stop offset="1" stop-color="#6B3976"/>
</linearGradient>
<linearGradient id="paint26_linear_7_6315" x1="58.0634" y1="133.131" x2="59.3438" y2="133.131" gradientUnits="userSpaceOnUse">
<stop stop-color="#F36F56"/>
<stop offset="1" stop-color="#FFC444"/>
</linearGradient>
<linearGradient id="paint27_linear_7_6315" x1="40.9737" y1="170.784" x2="85.077" y2="170.784" gradientUnits="userSpaceOnUse">
<stop stop-color="#444B8C"/>
<stop offset="1" stop-color="#26264F"/>
</linearGradient>
<linearGradient id="paint28_linear_7_6315" x1="41.8056" y1="171.2" x2="85.1159" y2="171.2" gradientUnits="userSpaceOnUse">
<stop stop-color="#444B8C"/>
<stop offset="1" stop-color="#26264F"/>
</linearGradient>
<linearGradient id="paint29_linear_7_6315" x1="41.8054" y1="171.701" x2="81.841" y2="171.701" gradientUnits="userSpaceOnUse">
<stop stop-color="#444B8C"/>
<stop offset="1" stop-color="#26264F"/>
</linearGradient>
<clipPath id="clip0_7_6315">
<rect width="202" height="200" fill="white"/>
</clipPath>
</defs>
</svg>
