<svg preserveAspectRatio="xMidYMid meet" width="74.0009" height="85.0009" overflow="visible" style="display: block;" viewBox="0 0 74.0009 85.0009" fill="none" xmlns="http://www.w3.org/2000/svg">
<g id="Group">
<path id="Vector" d="M64.8435 56.4705C64.2202 56.7784 63.4205 56.5657 62.9625 56.2246L59.3366 53.5377C58.8049 53.1434 57.9784 52.8754 57.2657 53.0282L40.0458 56.7429C39.6638 56.8249 38.7635 56.8072 38.4775 56.5369L22.8192 41.7954C22.3299 41.3347 22.1847 40.7255 22.2719 40.0809L25.0376 19.5891C25.0979 19.1372 25.4285 18.4926 25.7905 18.2666L40.1865 9.25784C41.4153 9.13601 42.5926 9.25784 43.8481 9.29549L56.7228 9.66985C57.1004 9.68092 58.0387 9.86478 58.2688 10.1682L69.745 25.3084C70.1002 25.778 70.1583 26.4071 70.0198 26.9321L66.1504 41.7024C65.9114 42.615 66.2309 43.346 66.8676 43.9241L73.5339 49.9669C73.7729 50.184 74.0053 50.822 74.0008 51.1188C73.9963 51.4577 73.6143 52.1444 73.2815 52.3083L64.8413 56.4705H64.8435ZM46.0352 42.7258L43.5867 40.0544C45.4924 35.9143 48.5865 32.7888 52.7641 31.019L55.3199 33.4246C56.2961 34.3438 57.6946 33.9075 58.3403 32.9129C59.0976 31.7455 58.9479 30.7354 58.1995 29.6877L53.3025 22.8231C52.8714 22.2206 52.009 21.8706 51.2584 22.0367L38.2876 24.923C37.6062 25.0736 37.3449 26.0771 37.2108 26.6707L34.5054 38.6456C34.3423 39.3699 34.6797 40.267 35.2896 40.6901L42.9121 45.9665C43.9062 46.6554 46.2318 45.7051 46.4664 44.438C46.5736 43.8577 46.3882 43.1046 46.0375 42.7236L46.0352 42.7258Z" fill="#FEB800"/>
<path id="Vector_2" d="M3.56186 56.0363C2.4091 56.1626 1.66964 55.5335 1.56911 54.5522L0.851983 29.9956L0.409645 14.4633C0.389539 13.7944 1.19602 13.1431 1.85506 13.09L13.0185 12.2061C14.0975 12.1197 14.6873 12.7555 14.8795 13.8187L21.8139 52.2994C22.0216 53.4469 21.2375 54.1092 20.2188 54.2221L3.55963 56.0385L3.56186 56.0363Z" fill="#FEB800"/>
<path id="Vector_3" d="M34.8651 79.8996L27.7988 79.6958L26.197 84.9721L18.2752 83.5589L29.4587 64.8989L34.9589 64.3983L43.799 83.4659L35.5353 84.7661L34.8651 79.8973V79.8996ZM34.0876 74.6365L33.1784 71.7524C32.4925 71.511 31.3755 71.3426 30.6942 71.5841L29.5481 74.508C31.2169 74.6675 32.4747 74.714 34.0876 74.6343V74.6365Z" fill="#FEB800"/>
<path id="Vector_4" d="M13.6373 71.7812L15.534 85.0009L5.7177 84.9788L7.20556 71.7569L0.027626 71.3648L0.0186899 64.3695L14.8437 64.6287L20.6745 64.7527L20.6366 72.8445L13.6373 71.7812Z" fill="#FEB800"/>
<path id="Vector_5" d="M48.1598 84.5446L42.9076 79.4676L49.116 73.8324L44.4089 68.5804L48.3341 64.529L52.8356 68.9592L56.1621 64.2078L61.2937 69.1143L57.4467 73.715L63.8583 78.7411L58.7089 84.662L54.0174 78.7389L48.1598 84.5446Z" fill="#FEB800"/>
<path id="Vector_6" d="M73.9986 83.6453L65.3127 84.7263L64.5263 64.4581L69.8299 64.1103L73.9986 83.6453Z" fill="#FEB800"/>
<path id="Vector_7" d="M12.3237 9.96002L1.85952 10.8128C0.941337 10.8881 0.248787 10.2856 0.221979 9.39074L0.000810157 2.27362C-0.0215301 1.54042 0.418574 0.661031 1.26974 0.607868L10.78 0.00536122C11.7808 -0.0588766 12.4801 0.457242 12.6275 1.38758L13.7133 8.28983C13.8317 9.04297 13.2151 9.88692 12.326 9.9578L12.3237 9.96002Z" fill="#FEB800"/>
</g>
</svg>
