<svg width="201" height="138" viewBox="0 0 201 138" fill="none" xmlns="http://www.w3.org/2000/svg">
<g clip-path="url(#clip0_7_2276)">
<path d="M173.86 27.6439C173.86 12.3746 161.515 0 146.281 0C131.048 0 118.703 12.3746 118.703 27.6439C118.703 27.6439 114.98 55.7131 144.365 78.7337C145.474 79.6117 147.089 79.6117 148.211 78.7337C177.596 55.7131 173.873 27.6439 173.873 27.6439H173.86Z" fill="url(#paint0_linear_7_2276)"/>
<path d="M147.431 41.898C138.644 42.5977 131.349 35.2991 132.047 26.4778C132.595 19.5497 138.193 13.9248 145.118 13.3761C153.905 12.6764 161.2 19.9749 160.502 28.7963C159.954 35.7244 154.356 41.3492 147.431 41.898Z" fill="white"/>
<path d="M32.3275 60.6794H0C0 60.6794 2.03929 54.8076 7.89711 53.7924C13.7549 52.7772 13.4949 57.3594 18.5863 57.6201C23.6777 57.8807 25.2105 54.8076 29.0291 56.6048C32.8476 58.3883 32.3412 60.6931 32.3412 60.6931L32.3275 60.6794Z" fill="#F1F2F2"/>
<path d="M106.919 39.4149H74.5916C74.5916 39.4149 76.6308 33.5431 82.4887 32.5279C88.3465 31.5127 88.0864 36.0949 93.1778 36.3555C98.2692 36.6162 99.8021 33.5431 103.621 35.3403C107.439 37.1238 106.933 39.4286 106.933 39.4286L106.919 39.4149Z" fill="#F1F2F2"/>
<path d="M201 138C200.617 136.23 199.289 132.512 194.759 132.512C188.833 132.512 190.653 136.628 184.261 133.884C177.87 131.14 180.607 112.387 169.658 109.19C158.709 105.993 159.626 124.734 154.603 127.478C149.58 130.221 147.308 119.699 140.465 122.909C134.963 125.475 134.182 134.529 134.087 138H201Z" fill="#63C856"/>
<path d="M83.6656 54.6019H114.351C115.405 54.6019 116.267 55.4662 116.267 56.5225V64.9872H81.7358V56.5225C81.7358 55.4662 82.5981 54.6019 83.6519 54.6019H83.6656Z" fill="#FEDA4E"/>
<path d="M81.3663 54.6019H112.051C113.105 54.6019 113.968 55.4662 113.968 56.5225V64.9872H79.4365V56.5225C79.4365 55.4662 80.2988 54.6019 81.3526 54.6019H81.3663Z" fill="#374148"/>
<path d="M155.41 100.026H64.9287V119.905H155.41V100.026Z" fill="#212826"/>
<path d="M158.668 117.737H16.7523C15.2102 117.737 13.9602 118.99 13.9602 120.536V121.921C13.9602 123.467 15.2102 124.72 16.7523 124.72H158.668C160.21 124.72 161.46 123.467 161.46 121.921V120.536C161.46 118.99 160.21 117.737 158.668 117.737Z" fill="#212826"/>
<path d="M42.2092 131.758C49.375 131.758 55.184 125.935 55.184 118.752C55.184 111.569 49.375 105.747 42.2092 105.747C35.0434 105.747 29.2344 111.569 29.2344 118.752C29.2344 125.935 35.0434 131.758 42.2092 131.758Z" fill="#17242B"/>
<path d="M107.275 131.758C114.441 131.758 120.25 125.935 120.25 118.752C120.25 111.569 114.441 105.747 107.275 105.747C100.109 105.747 94.3 111.569 94.3 118.752C94.3 125.935 100.109 131.758 107.275 131.758Z" fill="#17242B"/>
<path d="M72.3468 131.676C80.8581 131.676 87.7578 125.38 87.7578 117.614C87.7578 109.847 80.8581 103.551 72.3468 103.551C63.8355 103.551 56.9358 109.847 56.9358 117.614C56.9358 125.38 63.8355 131.676 72.3468 131.676Z" fill="#17242B"/>
<path d="M74.1124 131.676C81.8602 131.676 88.1411 125.38 88.1411 117.614C88.1411 109.847 81.8602 103.551 74.1124 103.551C66.3646 103.551 60.0837 109.847 60.0837 117.614C60.0837 125.38 66.3646 131.676 74.1124 131.676Z" fill="#2F393C"/>
<path d="M74.1124 131.676C81.8602 131.676 88.1411 125.38 88.1411 117.614C88.1411 109.847 81.8602 103.551 74.1124 103.551C66.3646 103.551 60.0837 109.847 60.0837 117.614C60.0837 125.38 66.3646 131.676 74.1124 131.676Z" fill="#212826"/>
<path d="M74.5503 128.616C80.6125 128.616 85.5269 123.69 85.5269 117.614C85.5269 111.537 80.6125 106.611 74.5503 106.611C68.4881 106.611 63.5737 111.537 63.5737 117.614C63.5737 123.69 68.4881 128.616 74.5503 128.616Z" fill="#48606C"/>
<path d="M86.6629 118.382C86.0196 118.382 85.4722 118.862 85.3627 119.507C84.4731 124.693 79.9702 128.63 74.5503 128.63C69.1305 128.63 64.6276 124.693 63.738 119.507C63.6285 118.862 63.0947 118.382 62.4378 118.382H61.5482C60.727 118.382 60.1248 119.123 60.2479 119.918C61.3155 126.627 67.1049 131.758 74.0987 131.758C81.0925 131.758 86.8956 126.627 87.9494 119.918C88.0726 119.109 87.4704 118.382 86.6492 118.382H86.6629Z" fill="#374148"/>
<path d="M81.5167 117.614C81.5167 121.441 78.4236 124.542 74.605 124.542C70.7865 124.542 67.6934 121.441 67.6934 117.614C67.6934 113.786 70.7865 110.685 74.605 110.685C78.4236 110.685 81.5167 113.786 81.5167 117.614Z" fill="#C4CAD1"/>
<path d="M64.4222 117.037C64.7507 117.037 65.0244 116.804 65.0655 116.475C65.6266 111.673 69.6778 107.955 74.6187 107.955C79.5595 107.955 83.6107 111.673 84.1718 116.475C84.2129 116.79 84.4866 117.037 84.8151 117.037C85.212 117.037 85.5131 116.694 85.4584 116.296C84.8151 110.836 80.1754 106.597 74.5502 106.597C68.9251 106.597 64.299 110.836 63.6421 116.296C63.601 116.694 63.8884 117.037 64.2854 117.037H64.4085H64.4222Z" fill="#524F5E"/>
<path d="M134.949 131.676C143.46 131.676 150.36 125.38 150.36 117.614C150.36 109.847 143.46 103.551 134.949 103.551C126.438 103.551 119.538 109.847 119.538 117.614C119.538 125.38 126.438 131.676 134.949 131.676Z" fill="#17242B"/>
<path d="M136.701 131.676C144.449 131.676 150.729 125.38 150.729 117.614C150.729 109.847 144.449 103.551 136.701 103.551C128.953 103.551 122.672 109.847 122.672 117.614C122.672 125.38 128.953 131.676 136.701 131.676Z" fill="#2F393C"/>
<path d="M136.701 131.676C144.449 131.676 150.729 125.38 150.729 117.614C150.729 109.847 144.449 103.551 136.701 103.551C128.953 103.551 122.672 109.847 122.672 117.614C122.672 125.38 128.953 131.676 136.701 131.676Z" fill="#212826"/>
<path d="M137.139 128.616C143.201 128.616 148.115 123.69 148.115 117.614C148.115 111.537 143.201 106.611 137.139 106.611C131.076 106.611 126.162 111.537 126.162 117.614C126.162 123.69 131.076 128.616 137.139 128.616Z" fill="#48606C"/>
<path d="M149.265 118.382C148.622 118.382 148.074 118.862 147.965 119.507C147.075 124.693 142.572 128.63 137.152 128.63C131.733 128.63 127.23 124.693 126.34 119.507C126.231 118.862 125.697 118.382 125.04 118.382H124.15C123.329 118.382 122.727 119.123 122.85 119.918C123.918 126.627 129.707 131.758 136.701 131.758C143.695 131.758 149.498 126.627 150.551 119.918C150.675 119.109 150.072 118.382 149.251 118.382H149.265Z" fill="#374148"/>
<path d="M144.338 117.572C144.338 121.4 141.245 124.5 137.426 124.5C133.608 124.5 130.514 121.4 130.514 117.572C130.514 113.745 133.608 110.644 137.426 110.644C141.245 110.644 144.338 113.745 144.338 117.572Z" fill="#C4CAD1"/>
<path d="M127.011 117.037C127.339 117.037 127.613 116.804 127.654 116.475C128.215 111.673 132.266 107.955 137.207 107.955C142.148 107.955 146.199 111.673 146.76 116.475C146.801 116.79 147.075 117.037 147.403 117.037C147.8 117.037 148.101 116.694 148.047 116.296C147.403 110.836 142.764 106.597 137.139 106.597C131.513 106.597 126.887 110.836 126.23 116.296C126.189 116.694 126.477 117.037 126.874 117.037H126.997H127.011Z" fill="#524F5E"/>
<path d="M47.5881 120.261V117.435L49.0936 115.72C49.0936 109.176 51.0097 105.335 52.351 103.442C52.7479 102.934 53.1722 102.44 53.6238 101.974C60.6998 94.4695 71.1015 94.0442 76.932 85.703C82.7624 77.3618 89.0035 62.7647 103.155 62.7647H65.5037C51.3519 62.7647 45.1108 77.3618 39.2804 85.703C33.4499 94.0442 23.0482 94.4695 15.9723 101.974C15.5343 102.44 15.11 102.934 14.6994 103.442C13.3581 105.335 11.442 109.176 11.442 115.72L9.93652 117.435V120.261C9.93652 120.988 10.525 121.578 11.2504 121.578H48.902C48.1766 121.578 47.5881 120.988 47.5881 120.261Z" fill="#FEDA4E"/>
<path d="M163.417 100.616L160.762 96.9526C157.915 77.842 150.401 68.8834 145.939 65.1107C144.105 63.5741 141.792 62.7373 139.411 62.7373H101.047C86.8956 62.7373 80.6545 77.3344 74.8241 85.6755C68.9936 94.0167 58.5919 94.442 51.516 101.946C51.0643 102.413 50.6537 102.907 50.2431 103.414C48.9018 105.308 46.9857 109.149 46.9857 115.693L45.4802 117.408V120.234C45.4802 120.961 46.0687 121.551 46.7941 121.551H59.1394C60.2753 121.551 61.1239 120.536 60.9323 119.411C60.7133 118.121 60.6722 116.777 60.8091 115.391C61.5619 108.271 67.4334 102.646 74.5504 102.207C83.1181 101.686 90.2351 108.49 90.2351 116.969C90.2351 117.627 90.194 118.286 90.1119 118.931C89.9203 120.33 91.0426 121.551 92.4386 121.551H120.469C122.275 121.551 123.671 120.001 123.521 118.203C123.439 117.284 123.452 116.338 123.548 115.377C124.301 108.257 130.172 102.632 137.289 102.193C145.857 101.672 152.974 108.477 152.974 116.955C152.974 117.737 152.919 118.492 152.796 119.232C152.604 120.44 153.535 121.523 154.753 121.523H160.529C162.486 121.523 164.06 119.932 164.06 117.984V102.66C164.06 101.905 163.827 101.178 163.389 100.574L163.417 100.616Z" fill="#FEDA4E"/>
<path d="M81.3389 85.4286H136.318C136.523 85.4286 136.714 85.3737 136.879 85.2777L149.84 77.9517C150.168 77.7734 150.346 77.4441 150.305 77.1011C150.127 75.6058 149.019 71.3528 142.258 66.949C141.847 66.6884 141.354 66.5512 140.848 66.5512H97.2973C96.7909 66.5512 96.2846 66.6884 95.874 66.949C93.4925 68.4033 85.3353 73.932 80.4082 84.1527C80.1208 84.7564 80.6135 85.4286 81.3663 85.4286H81.3389Z" fill="white"/>
<path d="M81.339 84.8524H136.153C136.345 84.8524 136.55 84.7975 136.715 84.7015L149.635 77.3755C149.963 77.1972 150.141 76.8679 150.1 76.5249C149.922 75.0296 148.813 70.7766 142.066 66.3728C141.655 66.1122 141.163 65.975 140.656 65.975H97.2291C96.7227 65.975 96.2299 66.1122 95.8057 66.3728C93.4242 67.827 85.3081 73.3558 80.381 83.5765C80.0936 84.1802 80.5863 84.8524 81.3253 84.8524H81.339Z" fill="#2C8CA5"/>
<path d="M137.905 69.5282C137.467 69.2401 136.934 69.0892 136.386 69.0892H92.0145C88.5244 71.9016 83.7341 76.6621 80.4083 83.5765C80.1209 84.1802 80.6136 84.8524 81.3527 84.8524H136.167C136.359 84.8524 136.564 84.7975 136.728 84.7015L146.336 79.255C145.72 77.1011 143.804 73.3695 137.919 69.5282H137.905Z" fill="#47BBE4"/>
<path d="M140.916 78.3907C140.478 78.1026 139.944 77.9517 139.397 77.9517H95.0254C92.9998 79.5843 90.5499 81.8754 88.1821 84.8524H136.167C136.359 84.8524 136.564 84.7975 136.728 84.7015L143.941 80.6132C143.079 79.8861 142.08 79.1316 140.93 78.3907H140.916Z" fill="#2C8CA5"/>
<path d="M45.8772 82.2046C51.297 73.3833 55.4304 68.856 57.4286 66.9216C58.2087 66.167 59.2626 65.7418 60.3575 65.7692L84.4458 66.2082C84.9385 66.2082 85.1711 66.8118 84.8153 67.1548C82.9266 68.9246 78.6016 73.5205 72.8396 82.9455C72.1416 84.0841 70.8961 84.7564 69.5685 84.7289L47.0269 84.3174C45.9593 84.3036 45.316 83.1101 45.8772 82.2046Z" fill="#2C8CA5"/>
<path d="M62.0546 68.2523C60.9596 68.2386 59.9058 68.6502 59.1256 69.4047C57.1548 71.3117 53.1173 75.743 47.7932 84.3311L69.5548 84.7289C70.8823 84.7564 72.1278 84.0704 72.8258 82.9455C77.3971 75.4823 81.0514 71.051 83.3234 68.6502L62.0546 68.2661V68.2523Z" fill="#47BBE4"/>
<path d="M51.5296 101.974C51.078 102.44 50.6674 102.934 50.2568 103.442C48.9155 105.335 46.9994 109.176 46.9994 115.72L45.4939 117.435V120.261C45.4939 120.988 46.0824 121.578 46.8078 121.578H59.153C60.289 121.578 61.1376 120.563 60.946 119.438C60.727 118.149 60.6859 116.804 60.8228 115.418C61.5755 108.298 67.447 102.673 74.564 102.234C83.1318 101.713 90.2488 108.518 90.2488 116.996C90.2488 117.655 90.2077 118.313 90.1256 118.958C89.934 120.357 91.0563 121.578 92.4523 121.578H120.482C122.289 121.578 123.685 120.028 123.534 118.231C123.452 117.312 123.466 116.365 123.562 115.405C124.314 108.285 130.186 102.66 137.303 102.221C145.871 101.699 152.988 108.504 152.988 116.982C152.988 117.764 152.933 118.519 152.81 119.26C152.618 120.467 153.549 121.551 154.767 121.551H160.543C162.5 121.551 164.074 119.959 164.074 118.011V102.687C164.074 101.933 163.841 101.206 163.403 100.602L160.748 96.9389C160.721 96.7194 160.68 96.4999 160.638 96.2804H59.3583C56.58 97.762 53.87 99.4632 51.5296 101.946V101.974Z" fill="#FEBC2F"/>
<path d="M45.7403 104.087H39.4582C38.9669 104.087 38.5686 104.486 38.5686 104.978V106.913C38.5686 107.405 38.9669 107.804 39.4582 107.804H45.7403C46.2317 107.804 46.63 107.405 46.63 106.913V104.978C46.63 104.486 46.2317 104.087 45.7403 104.087Z" fill="#FEE8A9"/>
<path d="M12.5779 107.804H18.3673C18.86 107.804 19.2569 107.407 19.2569 106.913V104.992C19.2569 104.498 18.86 104.1 18.3673 104.1H14.275C13.7139 105.006 13.098 106.227 12.5779 107.818V107.804Z" fill="#FEE8A9"/>
<path d="M161.651 108.724H164.443C165.196 108.724 165.798 109.327 165.798 110.082V118.313C165.798 119.068 165.196 119.671 164.443 119.671H161.651C160.734 119.671 159.981 118.917 159.981 117.998V110.384C159.981 109.464 160.734 108.71 161.651 108.71V108.724Z" fill="#212826"/>
<path d="M19.7222 110.356H36.2281C37.2546 110.356 38.0895 111.193 38.0895 112.222V116.886H17.8745V112.222C17.8745 111.193 18.7094 110.356 19.7359 110.356H19.7222Z" fill="#FEA100"/>
<path d="M49.3947 115.871H12.3727C11.2993 115.871 10.4292 116.743 10.4292 117.819V120.138C10.4292 121.214 11.2993 122.086 12.3727 122.086H49.3947C50.468 122.086 51.3382 121.214 51.3382 120.138V117.819C51.3382 116.743 50.468 115.871 49.3947 115.871Z" fill="#212826"/>
<path d="M43.1809 115.871H11.5377C10.4568 115.871 9.58057 116.75 9.58057 117.833V120.124C9.58057 121.208 10.4568 122.086 11.5377 122.086H43.1809C44.2618 122.086 45.1381 121.208 45.1381 120.124V117.833C45.1381 116.75 44.2618 115.871 43.1809 115.871Z" fill="#374148"/>
<path d="M41.2238 120.138H34.9553C34.3121 120.138 33.792 119.616 33.792 118.972C33.792 118.327 34.3121 117.806 34.9553 117.806H41.2238C41.867 117.806 42.3871 118.327 42.3871 118.972C42.3871 119.616 41.867 120.138 41.2238 120.138Z" fill="#212826"/>
<path d="M18.9147 120.138H12.6463C12.003 120.138 11.4829 119.616 11.4829 118.972C11.4829 118.327 12.003 117.806 12.6463 117.806H18.9147C19.5579 117.806 20.078 118.327 20.078 118.972C20.078 119.616 19.5579 120.138 18.9147 120.138Z" fill="#212826"/>
<mask id="mask0_7_2276" style="mask-type:luminance" maskUnits="userSpaceOnUse" x="9" y="62" width="95" height="60">
<path d="M47.5881 120.261V117.435L49.0936 115.72C49.0936 109.176 51.0097 105.335 52.351 103.442C52.7479 102.934 53.1722 102.44 53.6238 101.974C60.6998 94.4695 71.1015 94.0442 76.932 85.703C82.7624 77.3618 89.0035 62.7647 103.155 62.7647H65.5037C51.3519 62.7647 45.1108 77.3618 39.2804 85.703C33.4499 94.0442 23.0482 94.4695 15.9723 101.974C15.5343 102.44 15.11 102.934 14.6994 103.442C13.3581 105.335 11.442 109.176 11.442 115.72L9.93652 117.435V120.261C9.93652 120.988 10.525 121.578 11.2504 121.578H48.902C48.1766 121.578 47.5881 120.988 47.5881 120.261Z" fill="white"/>
</mask>
<g mask="url(#mask0_7_2276)">
<path d="M11.5104 112.071H15.6163C15.9311 112.071 16.1912 112.332 16.1912 112.647V114.129C16.1912 114.444 15.9311 114.705 15.6163 114.705H11.5104C11.1956 114.705 10.9355 114.444 10.9355 114.129V112.647C10.9355 112.332 11.1956 112.071 11.5104 112.071Z" fill="#FEA100"/>
</g>
<path d="M35.4207 104.224H22.09C21.6214 104.224 21.2415 104.605 21.2415 105.074V106.707C21.2415 107.177 21.6214 107.557 22.09 107.557H35.4207C35.8893 107.557 36.2692 107.177 36.2692 106.707V105.074C36.2692 104.605 35.8893 104.224 35.4207 104.224Z" fill="#374148"/>
<path d="M40.2521 112.071H44.358C44.6728 112.071 44.9329 112.332 44.9329 112.647V114.129C44.9329 114.444 44.6728 114.705 44.358 114.705H40.2521C39.9373 114.705 39.6772 114.444 39.6772 114.129V112.647C39.6772 112.332 39.9373 112.071 40.2521 112.071Z" fill="#FEA100"/>
<path d="M152.919 115.364H161.118C161.145 115.089 161.186 114.815 161.227 114.554H152.796C152.837 114.829 152.878 115.089 152.906 115.364H152.919Z" fill="#17242B"/>
<path d="M108.26 93.0427H102.375C101.65 93.0427 101.061 92.4528 101.061 91.7257C101.061 90.9985 101.65 90.4086 102.375 90.4086H108.26C108.986 90.4086 109.574 90.9985 109.574 91.7257C109.574 92.4528 108.986 93.0427 108.26 93.0427Z" fill="#374148"/>
<path d="M148.731 93.0427H142.846C142.121 93.0427 141.532 92.4528 141.532 91.7257C141.532 90.9985 142.121 90.4086 142.846 90.4086H148.731C149.457 90.4086 150.045 90.9985 150.045 91.7257C150.045 92.4528 149.457 93.0427 148.731 93.0427Z" fill="#374148"/>
<path d="M113.187 84.8524H116.787L113.393 67.9642H109.875L113.187 84.8524Z" fill="#2C8CA5"/>
<path d="M56.6349 99.2986H43.6053C43.2905 99.2986 42.9894 99.3809 42.7294 99.5318L38.9108 101.686C38.7056 101.795 38.4866 101.864 38.2539 101.864H22.0354C21.5564 101.864 21.1047 101.603 20.872 101.178L20.2972 100.149C20.1877 99.9571 20.0508 99.7787 19.8729 99.6415L19.2297 99.1065C19.1065 99.2025 18.9696 99.2986 18.8464 99.3946L19.5718 99.9982C19.695 100.108 19.8045 100.231 19.8866 100.369L20.4614 101.398C20.7762 101.974 21.3784 102.317 22.0354 102.317H38.2539C38.5687 102.317 38.8698 102.234 39.1298 102.084L42.9484 99.9296C43.1537 99.8199 43.3727 99.7513 43.6053 99.7513H56.0327C56.238 99.5867 56.4296 99.4358 56.6349 99.2849V99.2986Z" fill="#FEBC2F"/>
<path d="M164.087 108.065H162.089C161.829 108.065 161.61 107.887 161.569 107.626L161.323 106.24C161.268 105.911 161.514 105.623 161.843 105.623H164.087V108.065Z" fill="#E33C2E"/>
<path opacity="0.28" d="M63.6696 84.6329L69.1031 84.7289L68.0493 65.9064L62.6157 65.8103L63.6696 84.6329Z" fill="#FBF9FA"/>
<path d="M107.508 65.2753L111.34 85.1954H114.939L110.998 65.2753H107.508Z" fill="#DFE5F5"/>
<path d="M96.0245 112.894H92.3291V116.598H96.0245V112.894Z" fill="#212826"/>
<path d="M99.7198 116.612H96.0244V120.316H99.7198V116.612Z" fill="#212826"/>
<path d="M103.415 112.894H99.7197V116.598H103.415V112.894Z" fill="#212826"/>
<path d="M107.124 116.612H103.429V120.316H107.124V116.612Z" fill="#212826"/>
<path d="M110.82 112.894H107.124V116.598H110.82V112.894Z" fill="#212826"/>
<path d="M114.515 116.612H110.82V120.316H114.515V116.612Z" fill="#212826"/>
<path d="M118.224 112.894H114.529V116.598H118.224V112.894Z" fill="#212826"/>
<path d="M121.919 116.612H118.224V120.316H121.919V116.612Z" fill="#212826"/>
<path d="M67.707 117.614C67.707 121.441 70.8002 124.542 74.6187 124.542C78.4372 124.542 81.5304 121.441 81.5304 117.614C81.5304 117.572 81.5304 117.517 81.5167 117.476H67.7344C67.7344 117.476 67.7207 117.572 67.7207 117.614H67.707Z" fill="#AEB0B6"/>
<path d="M130.597 117.641C130.597 121.469 133.69 124.569 137.508 124.569C141.327 124.569 144.42 121.469 144.42 117.641C144.42 117.6 144.42 117.545 144.406 117.504H130.624C130.624 117.504 130.61 117.6 130.61 117.641H130.597Z" fill="#AEB0B6"/>
<path d="M159.982 138H17.642C15.9448 138 14.5625 136.614 14.5625 134.913C14.5625 133.212 15.9448 131.826 17.642 131.826H159.982C161.679 131.826 163.061 133.212 163.061 134.913C163.061 136.614 161.679 138 159.982 138Z" fill="#F1F2F2"/>
<path d="M43.2675 26.6213C45.6411 16.5407 39.4128 6.44007 29.3562 4.06085C19.2995 1.68162 9.22284 7.92478 6.84926 18.0053C4.47568 28.0859 10.704 38.1865 20.7607 40.5658C30.8173 42.945 40.894 36.7018 43.2675 26.6213Z" fill="#FEE18E"/>
</g>
<defs>
<linearGradient id="paint0_linear_7_2276" x1="120.756" y1="-39.0719" x2="179.856" y2="123.409" gradientUnits="userSpaceOnUse">
<stop stop-color="#FF7D49"/>
<stop offset="0.2" stop-color="#FB7646"/>
<stop offset="0.47" stop-color="#F16541"/>
<stop offset="0.78" stop-color="#E14837"/>
<stop offset="1" stop-color="#D32F2F"/>
</linearGradient>
<clipPath id="clip0_7_2276">
<rect width="201" height="138" fill="white"/>
</clipPath>
</defs>
</svg>
